<svg width="74" height="57" viewBox="0 0 74 57" fill="none" xmlns="http://www.w3.org/2000/svg">
<mask id="mask0_186_15" style="mask-type:luminance" maskUnits="userSpaceOnUse" x="19" y="8" width="36" height="41">
<path d="M19.7158 8.71015H54.0077V48.3168H19.7158V8.71015Z" fill="white"/>
</mask>
<g mask="url(#mask0_186_15)">
<path d="M53.3639 8.71015H23.0249C22.9817 8.71015 22.9387 8.71452 22.8965 8.72289C22.854 8.73162 22.8129 8.74399 22.7729 8.76036C22.7328 8.77709 22.6947 8.79747 22.6586 8.82148C22.6226 8.84549 22.5895 8.87278 22.5586 8.9037C22.5281 8.93426 22.5008 8.96737 22.4768 9.00339C22.4528 9.03941 22.4324 9.07761 22.4157 9.11763C22.3993 9.15765 22.3866 9.19876 22.3782 9.24133C22.3698 9.28389 22.3655 9.32682 22.3655 9.37012V11.3489H20.387C20.3437 11.3489 20.3008 11.3533 20.2582 11.3617C20.2157 11.37 20.1746 11.3828 20.1345 11.3991C20.0945 11.4159 20.0567 11.4359 20.0207 11.4602C19.9847 11.4843 19.9512 11.5115 19.9207 11.5421C19.8901 11.5727 19.8625 11.6061 19.8385 11.6422C19.8144 11.6782 19.7941 11.716 19.7777 11.756C19.761 11.7961 19.7486 11.8375 19.7402 11.8797C19.7315 11.9223 19.7275 11.9652 19.7275 12.0085V47.6299C19.7275 47.6732 19.7315 47.7161 19.7402 47.7587C19.7486 47.8012 19.761 47.8423 19.7777 47.8824C19.7941 47.9224 19.8144 47.9606 19.8385 47.9966C19.8625 48.0326 19.8901 48.0657 19.9207 48.0963C19.9512 48.1272 19.9847 48.1545 20.0207 48.1785C20.0563 48.2025 20.0945 48.2229 20.1345 48.2393C20.1746 48.256 20.2157 48.2684 20.2582 48.2771C20.3008 48.2855 20.3437 48.2895 20.387 48.2895H50.7259C50.7692 48.2895 50.8121 48.2855 50.8543 48.2771C50.8969 48.2684 50.9384 48.256 50.9784 48.2393C51.0184 48.2229 51.0562 48.2025 51.0922 48.1785C51.1282 48.1545 51.1617 48.1272 51.1923 48.0963C51.2228 48.0657 51.2501 48.0326 51.2741 47.9966C51.2981 47.9606 51.3185 47.9224 51.3352 47.8824C51.3516 47.8423 51.3643 47.8012 51.3727 47.7587C51.381 47.7161 51.3854 47.6732 51.3854 47.6299V45.6511H53.3639C53.4072 45.6511 53.4501 45.6467 53.4926 45.6383C53.5352 45.63 53.5763 45.6172 53.6163 45.6009C53.6563 45.5841 53.6945 45.5638 53.7305 45.5397C53.7665 45.5157 53.7996 45.4885 53.8302 45.4579C53.8611 45.4273 53.8884 45.3939 53.9124 45.3578C53.9364 45.3218 53.9568 45.284 53.9732 45.244C53.9899 45.2039 54.0023 45.1625 54.011 45.1199C54.0194 45.0777 54.0234 45.0348 54.0234 44.9915V9.37012C54.0234 9.32682 54.0194 9.28389 54.011 9.24133C54.0023 9.19876 53.9899 9.15765 53.9732 9.11763C53.9568 9.07761 53.9364 9.03941 53.9124 9.00339C53.8884 8.96737 53.8611 8.93426 53.8302 8.9037C53.7996 8.87278 53.7665 8.84549 53.7305 8.82148C53.6945 8.79747 53.6563 8.77709 53.6163 8.76036C53.5763 8.74399 53.5352 8.73162 53.4926 8.72289C53.4501 8.71452 53.4072 8.71015 53.3639 8.71015ZM23.0249 17.2857C23.0249 17.1776 23.0304 17.0699 23.0409 16.9626C23.0515 16.8549 23.0675 16.7483 23.0886 16.6425C23.1097 16.5366 23.1359 16.4318 23.1672 16.3285C23.1985 16.2252 23.2348 16.1233 23.2763 16.0236C23.3174 15.9239 23.3636 15.8264 23.4145 15.7311C23.4654 15.6358 23.5207 15.5434 23.5808 15.4535C23.6408 15.3636 23.7052 15.2771 23.7735 15.1934C23.8423 15.1101 23.9147 15.03 23.9911 14.9536C24.0675 14.8772 24.1471 14.8048 24.2308 14.7361C24.3141 14.6677 24.401 14.6033 24.4909 14.5436C24.5804 14.4836 24.6731 14.4279 24.7684 14.377C24.8634 14.326 24.9612 14.2798 25.0609 14.2387C25.1605 14.1972 25.262 14.1609 25.3657 14.1296C25.469 14.0983 25.5734 14.0721 25.6796 14.051C25.7855 14.0299 25.8921 14.0139 25.9997 14.0033C26.107 13.9928 26.2147 13.9877 26.3227 13.9877H27.6417C27.6854 13.9877 27.7279 13.9917 27.7705 14.0001C27.813 14.0088 27.8541 14.0212 27.8942 14.0379C27.9342 14.0543 27.9724 14.0746 28.0084 14.0987C28.0444 14.1227 28.0775 14.1503 28.1084 14.1809C28.139 14.2114 28.1662 14.2445 28.1903 14.2806C28.2143 14.3166 28.2346 14.3548 28.2514 14.3948C28.2677 14.4348 28.2805 14.4759 28.2888 14.5185C28.2972 14.5611 28.3016 14.604 28.3016 14.6473C28.3016 14.6906 28.2972 14.7335 28.2888 14.7761C28.2805 14.8183 28.2677 14.8598 28.2514 14.8998C28.2346 14.9398 28.2143 14.9776 28.1903 15.0137C28.1662 15.0497 28.139 15.0831 28.1084 15.1137C28.0775 15.1443 28.0444 15.1715 28.0084 15.1956C27.9724 15.2199 27.9342 15.2399 27.8942 15.2567C27.8541 15.2731 27.813 15.2858 27.7705 15.2942C27.7279 15.3025 27.6854 15.3069 27.6417 15.3069H26.3227C26.258 15.3069 26.1936 15.3105 26.1292 15.3171C26.0645 15.3233 26.0008 15.3331 25.9372 15.3458C25.8739 15.3586 25.8109 15.3746 25.7491 15.3935C25.6873 15.4124 25.6261 15.4342 25.5665 15.459C25.5068 15.4841 25.4483 15.5117 25.3912 15.5423C25.3341 15.5728 25.2788 15.6063 25.2249 15.6423C25.1711 15.6783 25.1191 15.7169 25.0692 15.7577C25.019 15.7988 24.971 15.8424 24.9256 15.8883C24.8797 15.9341 24.8361 15.9818 24.795 16.032C24.7539 16.0818 24.7153 16.1338 24.6793 16.1877C24.6433 16.2415 24.6102 16.2968 24.5796 16.354C24.5491 16.4111 24.5211 16.4696 24.4963 16.5293C24.4716 16.5893 24.4494 16.6501 24.4309 16.712C24.4119 16.7738 24.3959 16.8367 24.3832 16.9C24.3705 16.9637 24.3606 17.0277 24.3541 17.0921C24.3476 17.1565 24.3443 17.2209 24.3443 17.2857V18.6053C24.3443 18.67 24.3476 18.7344 24.3541 18.7988C24.3606 18.8632 24.3705 18.9272 24.3832 18.9909C24.3959 19.0542 24.4119 19.1171 24.4309 19.179C24.4494 19.2408 24.4716 19.3016 24.4963 19.3616C24.5211 19.4213 24.5491 19.4799 24.5796 19.537C24.6102 19.5941 24.6433 19.6494 24.6793 19.7033C24.7153 19.7571 24.7539 19.8091 24.795 19.859C24.8361 19.9092 24.8797 19.9568 24.9256 20.0027C24.971 20.0485 25.019 20.0922 25.0692 20.1333C25.1191 20.1744 25.1711 20.213 25.2249 20.249C25.2788 20.285 25.3341 20.3181 25.3912 20.3487C25.4483 20.3792 25.5068 20.4072 25.5665 20.432C25.6261 20.4567 25.6873 20.4786 25.7491 20.4975C25.8109 20.5164 25.8739 20.5324 25.9372 20.5451C26.0008 20.5579 26.0645 20.5677 26.1292 20.5742C26.1936 20.5804 26.258 20.5841 26.3227 20.5841H27.6417C27.6854 20.5841 27.7279 20.5884 27.7705 20.5968C27.813 20.6052 27.8541 20.6179 27.8942 20.6343C27.9342 20.651 27.9724 20.6714 28.0084 20.6954C28.0444 20.7194 28.0775 20.7467 28.1084 20.7772C28.139 20.8078 28.1662 20.8413 28.1903 20.8773C28.2143 20.9133 28.2346 20.9512 28.2514 20.9912C28.2677 21.0312 28.2805 21.0727 28.2888 21.1152C28.2972 21.1574 28.3016 21.2004 28.3016 21.2437C28.3016 21.287 28.2972 21.3299 28.2888 21.3725C28.2805 21.415 28.2677 21.4561 28.2514 21.4961C28.2346 21.5362 28.2143 21.5744 28.1903 21.6104C28.1662 21.6464 28.139 21.6795 28.1084 21.7101C28.0775 21.741 28.0444 21.7683 28.0084 21.7923C27.9724 21.8163 27.9342 21.8367 27.8942 21.8531C27.8541 21.8698 27.813 21.8822 27.7705 21.8909C27.7279 21.8993 27.6854 21.9033 27.6417 21.9033H26.3227C26.2147 21.9033 26.107 21.8982 25.9997 21.8876C25.8921 21.8771 25.7855 21.8611 25.6796 21.84C25.5734 21.8189 25.469 21.7927 25.3657 21.7614C25.262 21.7301 25.1605 21.6937 25.0609 21.6522C24.9612 21.6111 24.8634 21.5649 24.7684 21.514C24.6731 21.463 24.5804 21.4077 24.4909 21.3477C24.401 21.2877 24.3141 21.2233 24.2308 21.1549C24.1471 21.0861 24.0675 21.0137 23.9911 20.9373C23.9147 20.8609 23.8423 20.7809 23.7735 20.6976C23.7052 20.6139 23.6408 20.5273 23.5808 20.4374C23.5207 20.3476 23.4654 20.2552 23.4145 20.1598C23.3636 20.0645 23.3174 19.967 23.2763 19.8673C23.2348 19.7677 23.1985 19.6658 23.1672 19.5625C23.1359 19.4591 23.1097 19.3547 23.0886 19.2485C23.0675 19.1426 23.0515 19.036 23.0409 18.9283C23.0304 18.821 23.0249 18.7133 23.0249 18.6053V17.2857ZM50.0664 46.9703H21.0465V24.542H50.0664V46.9703ZM32.5884 18.6053H31.9289C31.8533 18.6053 31.778 18.6016 31.7027 18.594C31.6274 18.5867 31.5528 18.5754 31.4786 18.5609C31.4044 18.546 31.3313 18.5278 31.2589 18.5056C31.1865 18.4837 31.1152 18.4583 31.0454 18.4295C30.9755 18.4004 30.9075 18.368 30.8406 18.3324C30.774 18.2967 30.7093 18.2582 30.6463 18.216C30.5834 18.1741 30.523 18.129 30.4644 18.081C30.4059 18.033 30.3502 17.9824 30.2968 17.9289C30.2433 17.8754 30.1924 17.8194 30.1443 17.7612C30.0967 17.7026 30.0516 17.6419 30.0094 17.5789C29.9676 17.5164 29.9286 17.4512 29.893 17.3846C29.8573 17.3181 29.8253 17.2497 29.7962 17.1798C29.7671 17.11 29.742 17.039 29.7198 16.9666C29.698 16.8942 29.6795 16.8211 29.6649 16.7469C29.65 16.6727 29.6391 16.5981 29.6318 16.5228C29.6242 16.4475 29.6205 16.3721 29.6205 16.2965C29.6205 16.2208 29.6242 16.1455 29.6318 16.0702C29.6391 15.9949 29.65 15.9199 29.6649 15.8461C29.6795 15.7718 29.698 15.6984 29.7198 15.6263C29.742 15.5539 29.7671 15.4826 29.7962 15.4128C29.8253 15.3429 29.8573 15.2745 29.893 15.2079C29.9286 15.1414 29.9676 15.0766 30.0094 15.0137C30.0516 14.9507 30.0967 14.89 30.1443 14.8317C30.1924 14.7732 30.2433 14.7171 30.2968 14.6637C30.3502 14.6102 30.4059 14.5596 30.4644 14.5116C30.523 14.4636 30.5834 14.4188 30.6463 14.3766C30.7093 14.3348 30.774 14.2958 30.8406 14.2602C30.9075 14.2245 30.9755 14.1922 31.0454 14.1634C31.1152 14.1343 31.1865 14.1088 31.2589 14.087C31.3313 14.0652 31.4044 14.0466 31.4786 14.0321C31.5528 14.0172 31.6274 14.0062 31.7027 13.9986C31.778 13.9913 31.8533 13.9877 31.9289 13.9877H32.9183C32.9831 13.9877 33.0475 13.991 33.1118 13.9975C33.1762 14.0041 33.2403 14.0139 33.3039 14.0266C33.3672 14.0393 33.4301 14.055 33.492 14.0739C33.5538 14.0928 33.6146 14.115 33.6746 14.1398C33.7342 14.1645 33.7928 14.1925 33.8499 14.2231C33.907 14.2536 33.9623 14.2867 34.0161 14.3228C34.07 14.3588 34.122 14.3973 34.1718 14.4385C34.222 14.4796 34.2697 14.5232 34.3155 14.5687C34.3613 14.6145 34.405 14.6626 34.4461 14.7128C34.4872 14.7626 34.5258 14.8146 34.5618 14.8685C34.5978 14.9223 34.6309 14.9776 34.6614 15.0348C34.692 15.0919 34.72 15.1504 34.7447 15.2101C34.7695 15.2698 34.7913 15.3309 34.8102 15.3927C34.8291 15.4546 34.8451 15.5175 34.8579 15.5808C34.8706 15.6445 34.8804 15.7082 34.887 15.7726C34.8932 15.8373 34.8968 15.9017 34.8968 15.9665C34.8968 16.0098 34.8928 16.0527 34.8841 16.0953C34.8757 16.1378 34.8633 16.179 34.8466 16.219C34.8302 16.259 34.8099 16.2968 34.7858 16.3329C34.7615 16.3689 34.7342 16.4023 34.7036 16.4329C34.6731 16.4635 34.6396 16.4911 34.6036 16.5151C34.5676 16.5391 34.5298 16.5595 34.4897 16.5759C34.4497 16.5926 34.4083 16.605 34.3661 16.6134C34.3235 16.6221 34.2806 16.6261 34.2373 16.6261C34.194 16.6261 34.1511 16.6221 34.1085 16.6134C34.066 16.605 34.0249 16.5926 33.9849 16.5759C33.9448 16.5595 33.907 16.5391 33.871 16.5151C33.835 16.4911 33.8015 16.4635 33.771 16.4329C33.7404 16.4023 33.7131 16.3689 33.6888 16.3329C33.6648 16.2968 33.6444 16.259 33.628 16.219C33.6113 16.179 33.5989 16.1378 33.5905 16.0953C33.5818 16.0527 33.5778 16.0098 33.5778 15.9665C33.5778 15.9232 33.5735 15.8803 33.5651 15.8377C33.5567 15.7955 33.544 15.754 33.5276 15.714C33.5109 15.674 33.4905 15.6361 33.4665 15.6001C33.4425 15.5641 33.4152 15.5306 33.3847 15.5001C33.3541 15.4695 33.3206 15.4422 33.2846 15.4182C33.2486 15.3938 33.2108 15.3738 33.1708 15.3571C33.1308 15.3404 33.0893 15.328 33.0467 15.3196C33.0045 15.3113 32.9616 15.3069 32.9183 15.3069H31.9289C31.8638 15.3069 31.7998 15.3131 31.7358 15.3258C31.6721 15.3385 31.6103 15.3575 31.5503 15.3822C31.4902 15.4069 31.4331 15.4375 31.3793 15.4735C31.3251 15.5099 31.2753 15.5506 31.2294 15.5969C31.1836 15.6427 31.1425 15.6925 31.1065 15.7467C31.0701 15.8006 31.0399 15.8577 31.0148 15.9177C30.9901 15.9778 30.9712 16.0396 30.9584 16.1033C30.9461 16.167 30.9395 16.2313 30.9395 16.2965C30.9395 16.3612 30.9461 16.4256 30.9584 16.4893C30.9712 16.553 30.9901 16.6148 31.0148 16.6748C31.0399 16.7349 31.0701 16.792 31.1065 16.8462C31.1425 16.9 31.1836 16.9503 31.2294 16.9961C31.2753 17.0419 31.3251 17.083 31.3793 17.1191C31.4331 17.1551 31.4902 17.1856 31.5503 17.2104C31.6103 17.2355 31.6721 17.254 31.7358 17.2668C31.7998 17.2795 31.8638 17.2857 31.9289 17.2857H32.5884C32.6641 17.2857 32.7394 17.2897 32.8147 17.297C32.89 17.3042 32.9645 17.3155 33.0387 17.3301C33.1129 17.345 33.1861 17.3632 33.2584 17.3854C33.3308 17.4072 33.4021 17.4327 33.472 17.4614C33.5418 17.4905 33.6098 17.5229 33.6768 17.5586C33.7433 17.5942 33.8081 17.6328 33.871 17.675C33.9339 17.7168 33.9943 17.7619 34.0529 17.81C34.1114 17.858 34.1671 17.9085 34.2206 17.962C34.274 18.0155 34.325 18.0715 34.373 18.1301C34.421 18.1883 34.4657 18.2491 34.5079 18.312C34.5498 18.375 34.5887 18.4397 34.6243 18.5063C34.66 18.5729 34.6924 18.6413 34.7211 18.7111C34.7502 18.781 34.7757 18.8519 34.7975 18.9243C34.8193 18.9967 34.8379 19.0702 34.8524 19.1441C34.8673 19.2183 34.8782 19.2932 34.8859 19.3682C34.8932 19.4435 34.8968 19.5192 34.8968 19.5945C34.8968 19.6702 34.8932 19.7458 34.8859 19.8208C34.8782 19.8961 34.8673 19.971 34.8524 20.0449C34.8379 20.1191 34.8193 20.1926 34.7975 20.265C34.7757 20.337 34.7502 20.4083 34.7211 20.4782C34.6924 20.548 34.66 20.6164 34.6243 20.683C34.5887 20.7496 34.5498 20.8144 34.5079 20.8773C34.4657 20.9402 34.421 21.001 34.373 21.0592C34.325 21.1178 34.274 21.1738 34.2206 21.2273C34.1671 21.2808 34.1114 21.3313 34.0529 21.3794C33.9943 21.4274 33.9339 21.4721 33.871 21.5143C33.8081 21.5562 33.7433 21.5951 33.6768 21.6308C33.6098 21.6664 33.5418 21.6988 33.472 21.7275C33.4021 21.7566 33.3308 21.7821 33.2584 21.8039C33.1861 21.8261 33.1129 21.8443 33.0387 21.8592C32.9645 21.8738 32.89 21.8851 32.8147 21.8923C32.7394 21.8996 32.6641 21.9033 32.5884 21.9033H31.599C31.5342 21.9033 31.4699 21.9 31.4055 21.8934C31.3411 21.8869 31.2771 21.8771 31.2134 21.8643C31.1501 21.8516 31.0872 21.836 31.0254 21.817C30.9635 21.7981 30.9028 21.7763 30.8427 21.7512C30.7831 21.7264 30.7245 21.6988 30.6674 21.6682C30.6103 21.6373 30.555 21.6042 30.5012 21.5682C30.4473 21.5322 30.3953 21.4936 30.3455 21.4525C30.2953 21.4114 30.2476 21.3681 30.2018 21.3222C30.156 21.2764 30.1123 21.2284 30.0712 21.1785C30.0305 21.1283 29.9919 21.0763 29.9559 21.0225C29.9199 20.9686 29.8864 20.9133 29.8559 20.8562C29.8253 20.7991 29.7977 20.7405 29.7726 20.6808C29.7478 20.6212 29.726 20.56 29.7071 20.4982C29.6882 20.4363 29.6722 20.3738 29.6595 20.3101C29.6467 20.2468 29.6369 20.1828 29.6307 20.1184C29.6242 20.054 29.6205 19.9892 29.6205 19.9245C29.6205 19.8812 29.6249 19.8382 29.6333 19.7957C29.6416 19.7535 29.654 19.712 29.6707 19.672C29.6875 19.6319 29.7075 19.5941 29.7318 19.5581C29.7559 19.5221 29.7831 19.4886 29.8137 19.458C29.8442 19.4275 29.8777 19.4002 29.9137 19.3758C29.9497 19.3518 29.9876 19.3314 30.0276 19.3151C30.0676 19.2983 30.1091 19.286 30.1513 19.2776C30.1938 19.2689 30.2367 19.2649 30.28 19.2649C30.3233 19.2649 30.3662 19.2689 30.4088 19.2776C30.4513 19.286 30.4925 19.2983 30.5325 19.3151C30.5725 19.3314 30.6103 19.3518 30.6463 19.3758C30.6823 19.4002 30.7158 19.4275 30.7464 19.458C30.7769 19.4886 30.8046 19.5221 30.8286 19.5581C30.8526 19.5941 30.8729 19.6319 30.8893 19.672C30.906 19.712 30.9184 19.7535 30.9268 19.7957C30.9355 19.8382 30.9395 19.8812 30.9395 19.9245C30.9395 19.9678 30.9439 20.0107 30.9522 20.0532C30.9606 20.0955 30.9733 20.1369 30.9897 20.1769C31.0064 20.217 31.0268 20.2548 31.0508 20.2908C31.0748 20.3268 31.1021 20.3603 31.1327 20.3909C31.1632 20.4214 31.1967 20.4487 31.2327 20.4731C31.2687 20.4971 31.3069 20.5175 31.3469 20.5339C31.3869 20.5506 31.428 20.563 31.4706 20.5713C31.5128 20.5801 31.5557 20.5841 31.599 20.5841H32.5884C32.6535 20.5841 32.7179 20.5779 32.7816 20.5651C32.8452 20.5524 32.9071 20.5335 32.9671 20.5087C33.0271 20.484 33.0842 20.4534 33.138 20.4174C33.1922 20.3814 33.2421 20.3403 33.2879 20.2945C33.3341 20.2483 33.3748 20.1984 33.4109 20.1442C33.4472 20.0904 33.4774 20.0332 33.5025 19.9732C33.5273 19.9132 33.5462 19.8513 33.5589 19.7877C33.5713 19.724 33.5778 19.6596 33.5778 19.5945C33.5778 19.5297 33.5713 19.4653 33.5589 19.4017C33.5462 19.338 33.5273 19.2761 33.5025 19.2161C33.4774 19.1561 33.4472 19.099 33.4109 19.0447C33.3748 18.9909 33.3341 18.9411 33.2879 18.8949C33.2421 18.849 33.1922 18.8079 33.138 18.7719C33.0842 18.7359 33.0271 18.7053 32.9671 18.6806C32.9071 18.6555 32.8452 18.6369 32.7816 18.6242C32.7179 18.6114 32.6535 18.6053 32.5884 18.6053ZM38.8541 19.9641L40.173 17.7608V14.6473C40.173 14.604 40.1774 14.5611 40.1858 14.5185C40.1941 14.4759 40.2069 14.4348 40.2232 14.3948C40.24 14.3548 40.2603 14.3166 40.2844 14.2806C40.3084 14.2445 40.3356 14.2114 40.3662 14.1809C40.3971 14.1503 40.4302 14.1227 40.4662 14.0987C40.5022 14.0746 40.5404 14.0543 40.5805 14.0379C40.6205 14.0212 40.6616 14.0088 40.7041 14.0001C40.7467 13.9917 40.7892 13.9877 40.8325 13.9877C40.8762 13.9877 40.9187 13.9917 40.9613 14.0001C41.0039 14.0088 41.045 14.0212 41.085 14.0379C41.125 14.0543 41.1632 14.0746 41.1992 14.0987C41.2352 14.1227 41.2683 14.1503 41.2992 14.1809C41.3298 14.2114 41.3571 14.2445 41.3811 14.2806C41.4051 14.3166 41.4255 14.3548 41.4422 14.3948C41.4586 14.4348 41.4713 14.4759 41.4797 14.5185C41.488 14.5611 41.4924 14.604 41.4924 14.6473V17.9457C41.4924 18.0661 41.4615 18.1781 41.4 18.2818L39.4212 21.5802C39.4066 21.6046 39.3906 21.6282 39.3732 21.6508C39.3557 21.673 39.3364 21.6941 39.3164 21.7141C39.296 21.7341 39.2746 21.7526 39.2517 21.7697C39.2291 21.7872 39.2051 21.8028 39.1804 21.8167C39.1556 21.8309 39.1302 21.8432 39.1036 21.8541C39.0774 21.8651 39.0505 21.8738 39.0229 21.8814C38.9952 21.8887 38.9676 21.8942 38.9392 21.8978C38.9108 21.9014 38.8824 21.9033 38.8541 21.9033C38.8257 21.9033 38.7973 21.9014 38.769 21.8978C38.7406 21.8942 38.7129 21.8887 38.6853 21.8814C38.6576 21.8738 38.6307 21.8651 38.6045 21.8541C38.578 21.8432 38.5525 21.8309 38.5278 21.8167C38.5031 21.8028 38.4794 21.7872 38.4565 21.7697C38.4339 21.7526 38.4121 21.7341 38.3917 21.7141C38.3717 21.6941 38.3528 21.673 38.335 21.6508C38.3175 21.6282 38.3015 21.6046 38.287 21.5802L36.3082 18.2818C36.2467 18.1781 36.2161 18.0661 36.2158 17.9457V14.6473C36.2158 14.604 36.2201 14.5611 36.2285 14.5185C36.2372 14.4759 36.2496 14.4348 36.266 14.3948C36.2827 14.3548 36.3031 14.3166 36.3271 14.2806C36.3511 14.2445 36.3784 14.2114 36.4093 14.1809C36.4398 14.1503 36.4729 14.1227 36.5089 14.0987C36.545 14.0746 36.5832 14.0543 36.6232 14.0379C36.6632 14.0212 36.7043 14.0088 36.7468 14.0001C36.7894 13.9917 36.8323 13.9877 36.8756 13.9877C36.9189 13.9877 36.9618 13.9917 37.004 14.0001C37.0466 14.0088 37.0877 14.0212 37.1277 14.0379C37.1677 14.0543 37.2059 14.0746 37.2419 14.0987C37.2779 14.1227 37.3114 14.1503 37.3419 14.1809C37.3725 14.2114 37.3998 14.2445 37.4238 14.2806C37.4478 14.3166 37.4682 14.3548 37.4849 14.3948C37.5013 14.4348 37.514 14.4759 37.5224 14.5185C37.5307 14.5611 37.5351 14.604 37.5351 14.6473V17.7608L38.8541 19.9641ZM44.7898 17.2857V13.5984L49.1363 17.9457H45.4497C45.406 17.9457 45.3635 17.9413 45.3209 17.9329C45.2783 17.9242 45.2372 17.9118 45.1972 17.8954C45.1572 17.8787 45.119 17.8583 45.083 17.8343C45.047 17.8103 45.0139 17.783 44.983 17.7521C44.9524 17.7215 44.9251 17.6884 44.9011 17.6524C44.8771 17.6164 44.8567 17.5782 44.84 17.5382C44.8236 17.4982 44.8109 17.457 44.8025 17.4145C44.7942 17.3719 44.7898 17.329 44.7898 17.2857ZM52.7044 44.3319H51.3854V18.6053C51.3847 18.5176 51.3679 18.4335 51.3348 18.3524C51.3017 18.2716 51.2548 18.1996 51.1941 18.1367L44.5988 11.5403C44.5359 11.4795 44.4639 11.4326 44.3831 11.3995C44.302 11.3664 44.218 11.3496 44.1303 11.3489H23.6848V10.0297H52.7044V44.3319Z" fill="#155124"/>
</g>
<path d="M45.4758 26.5212H25.637C25.573 26.5212 25.5094 26.5245 25.4457 26.5307C25.382 26.5372 25.3191 26.5467 25.2562 26.5594C25.1936 26.5718 25.1318 26.5874 25.0707 26.606C25.0096 26.6245 24.9495 26.6463 24.8903 26.6707C24.8313 26.6951 24.7738 26.7227 24.7175 26.7529C24.6611 26.7828 24.6062 26.8159 24.5531 26.8512C24.4999 26.8868 24.449 26.925 24.3995 26.9654C24.3501 27.0062 24.3028 27.0491 24.2577 27.0942C24.2126 27.1393 24.1697 27.1866 24.1289 27.2361C24.0885 27.2852 24.0503 27.3365 24.0151 27.3896C23.9794 27.4427 23.9467 27.4977 23.9165 27.5541C23.8863 27.6105 23.859 27.6679 23.8343 27.7269C23.8099 27.7862 23.7881 27.8462 23.7695 27.9073C23.751 27.9685 23.7353 28.0303 23.723 28.0929C23.7102 28.1555 23.7008 28.2188 23.6942 28.2824C23.688 28.3461 23.6848 28.4098 23.6848 28.4734V43.0389C23.6848 43.1025 23.688 43.1666 23.6942 43.2299C23.7008 43.2935 23.7102 43.3568 23.723 43.4194C23.7353 43.482 23.751 43.5438 23.7695 43.605C23.7881 43.6661 23.8099 43.7265 23.8343 43.7854C23.859 43.8444 23.8863 43.9022 23.9165 43.9582C23.9467 44.0146 23.9794 44.0696 24.0151 44.1227C24.0503 44.1758 24.0885 44.2271 24.1289 44.2762C24.1697 44.3257 24.2126 44.373 24.2577 44.4181C24.3028 44.4636 24.3501 44.5065 24.3995 44.5469C24.449 44.5873 24.4999 44.6255 24.5531 44.6611C24.6062 44.6964 24.6611 44.7295 24.7175 44.7597C24.7738 44.7899 24.8313 44.8172 24.8903 44.8416C24.9495 44.8663 25.0096 44.8878 25.0707 44.9063C25.1318 44.9249 25.1936 44.9405 25.2562 44.9533C25.3191 44.9656 25.382 44.9751 25.4457 44.9817C25.5094 44.9878 25.573 44.9911 25.637 44.9915H45.4758C45.5399 44.9911 45.6035 44.9878 45.6672 44.9817C45.7308 44.9751 45.7938 44.9656 45.8563 44.9533C45.9193 44.9405 45.9811 44.9249 46.0422 44.9063C46.1033 44.8878 46.1633 44.8663 46.2223 44.8416C46.2812 44.8172 46.339 44.7899 46.3954 44.7597C46.4518 44.7295 46.5064 44.6964 46.5595 44.6611C46.6126 44.6255 46.6639 44.5873 46.7133 44.5469C46.7628 44.5065 46.8101 44.4636 46.8552 44.4181C46.9003 44.373 46.9432 44.3257 46.9836 44.2762C47.0243 44.2271 47.0622 44.1758 47.0978 44.1227C47.1335 44.0696 47.1662 44.0146 47.1964 43.9582C47.2266 43.9022 47.2539 43.8444 47.2782 43.7854C47.303 43.7265 47.3244 43.6661 47.343 43.605C47.3619 43.5438 47.3772 43.482 47.3899 43.4194C47.4026 43.3568 47.4121 43.2935 47.4183 43.2299C47.4248 43.1666 47.4281 43.1025 47.4281 43.0389V28.4734C47.4281 28.4098 47.4248 28.3461 47.4183 28.2824C47.4121 28.2188 47.4026 28.1555 47.3899 28.0929C47.3772 28.0303 47.3619 27.9685 47.343 27.9073C47.3244 27.8462 47.303 27.7862 47.2782 27.7269C47.2539 27.6679 47.2266 27.6105 47.1964 27.5541C47.1662 27.4977 47.1335 27.4427 47.0978 27.3896C47.0622 27.3365 47.0243 27.2852 46.9836 27.2361C46.9432 27.1866 46.9003 27.1393 46.8552 27.0942C46.8101 27.0491 46.7628 27.0062 46.7133 26.9654C46.6639 26.925 46.6126 26.8868 46.5595 26.8512C46.5064 26.8159 46.4518 26.7828 46.3954 26.7529C46.339 26.7227 46.2812 26.6951 46.2223 26.6707C46.1633 26.6463 46.1033 26.6245 46.0422 26.606C45.9811 26.5874 45.9193 26.5718 45.8563 26.5594C45.7938 26.5467 45.7308 26.5372 45.6672 26.5307C45.6035 26.5245 45.5399 26.5212 45.4758 26.5212ZM28.3015 43.6719H25.637C25.5952 43.6719 25.5541 43.6679 25.5134 43.6599C25.4726 43.6519 25.433 43.6399 25.3944 43.6239C25.3562 43.6079 25.3198 43.5886 25.2849 43.5653C25.2504 43.5424 25.2187 43.5158 25.1893 43.4867C25.1598 43.4573 25.1336 43.4252 25.1103 43.3907C25.0874 43.3561 25.0678 43.3194 25.0518 43.2812C25.0361 43.2426 25.0241 43.203 25.0157 43.1622C25.0077 43.1215 25.0037 43.0803 25.0037 43.0389V41.0335H28.3015V43.6719ZM28.3015 39.7143H25.0037V37.0755H28.3015V39.7143ZM28.3015 35.7563H25.0037V33.1176H28.3015V35.7563ZM40.173 43.6719H29.6205V41.0335H40.173V43.6719ZM40.173 39.7143H29.6205V37.0755H40.173V39.7143ZM40.173 35.7563H29.6205V33.1176H40.173V35.7563ZM46.1091 43.0389C46.1091 43.0803 46.1051 43.1215 46.0968 43.1622C46.0888 43.203 46.0768 43.2426 46.0608 43.2812C46.0447 43.3194 46.0255 43.3561 46.0022 43.3907C45.9793 43.4252 45.9531 43.4573 45.9236 43.4867C45.8942 43.5158 45.8621 43.5424 45.8276 43.5653C45.793 43.5886 45.7567 43.6079 45.7181 43.6239C45.6799 43.6399 45.6403 43.6519 45.5995 43.6599C45.5588 43.6679 45.5173 43.6719 45.4758 43.6719H41.4924V41.0335H46.1091V43.0389ZM46.1091 39.7143H41.4924V37.0755H46.1091V39.7143ZM46.1091 35.7563H41.4924V33.1176H46.1091V35.7563Z" fill="#155124"/>
</svg>
