<svg width="25" height="25" viewBox="0 0 25 25" fill="none" xmlns="http://www.w3.org/2000/svg">
<path d="M8.47342 20.5C8.02542 20.5 7.64409 20.3427 7.32942 20.028C7.01476 19.7133 6.85742 19.3323 6.85742 18.885V6.5H5.85742V5.5H9.85742V4.73H15.8574V5.5H19.8574V6.5H18.8574V18.885C18.8574 19.345 18.7034 19.7293 18.3954 20.038C18.0874 20.3467 17.7028 20.5007 17.2414 20.5H8.47342ZM17.8574 6.5H7.85742V18.885C7.85742 19.0643 7.91509 19.2117 8.03042 19.327C8.14576 19.4423 8.29342 19.5 8.47342 19.5H17.2424C17.3958 19.5 17.5368 19.436 17.6654 19.308C17.7941 19.18 17.8581 19.0387 17.8574 18.884V6.5ZM10.6654 17.5H11.6654V8.5H10.6654V17.5ZM14.0494 17.5H15.0494V8.5H14.0494V17.5Z" fill="white"/>
</svg>
