<svg width="52" height="52" viewBox="0 0 52 52" fill="none" xmlns="http://www.w3.org/2000/svg">
<g clip-path="url(#clip0_187_24)">
<path fill-rule="evenodd" clip-rule="evenodd" d="M26 47.125C31.6027 47.125 36.9759 44.8993 40.9376 40.9376C44.8993 36.9759 47.125 31.6027 47.125 26C47.125 20.3973 44.8993 15.0241 40.9376 11.0624C36.9759 7.10066 31.6027 4.875 26 4.875C20.3973 4.875 15.0241 7.10066 11.0624 11.0624C7.10066 15.0241 4.875 20.3973 4.875 26C4.875 31.6027 7.10066 36.9759 11.0624 40.9376C15.0241 44.8993 20.3973 47.125 26 47.125ZM26 52C32.8956 52 39.5088 49.2607 44.3848 44.3848C49.2607 39.5088 52 32.8956 52 26C52 19.1044 49.2607 12.4912 44.3848 7.61522C39.5088 2.73928 32.8956 0 26 0C19.1044 0 12.4912 2.73928 7.61522 7.61522C2.73928 12.4912 0 19.1044 0 26C0 32.8956 2.73928 39.5088 7.61522 44.3848C12.4912 49.2607 19.1044 52 26 52ZM29.25 35.75C29.25 36.612 28.9076 37.4386 28.2981 38.0481C27.6886 38.6576 26.862 39 26 39C25.138 39 24.3114 38.6576 23.7019 38.0481C23.0924 37.4386 22.75 36.612 22.75 35.75C22.75 34.888 23.0924 34.0614 23.7019 33.4519C24.3114 32.8424 25.138 32.5 26 32.5C26.862 32.5 27.6886 32.8424 28.2981 33.4519C28.9076 34.0614 29.25 34.888 29.25 35.75ZM28.4375 15.4375C28.4375 14.791 28.1807 14.171 27.7236 13.7139C27.2665 13.2568 26.6465 13 26 13C25.3535 13 24.7335 13.2568 24.2764 13.7139C23.8193 14.171 23.5625 14.791 23.5625 15.4375V26.8125C23.5625 27.459 23.8193 28.079 24.2764 28.5361C24.7335 28.9932 25.3535 29.25 26 29.25C26.6465 29.25 27.2665 28.9932 27.7236 28.5361C28.1807 28.079 28.4375 27.459 28.4375 26.8125V15.4375Z" fill="#F42F2F"/>
</g>
<defs>
<clipPath id="clip0_187_24">
<rect width="52" height="52" fill="white"/>
</clipPath>
</defs>
</svg>
