<svg width="256" height="256" viewBox="0 0 256 256" fill="none" xmlns="http://www.w3.org/2000/svg">
<path d="M232.592 107.109H224V106.667H128V149.333H188.283C179.488 174.171 155.856 192 128 192C92.656 192 64 163.344 64 128C64 92.6559 92.656 63.9999 128 63.9999C144.315 63.9999 159.157 70.1546 170.459 80.2079L200.629 50.0373C181.579 32.2826 156.096 21.3333 128 21.3333C69.0934 21.3333 21.3334 69.0932 21.3334 128C21.3334 186.907 69.0934 234.667 128 234.667C186.907 234.667 234.667 186.907 234.667 128C234.667 120.848 233.931 113.867 232.592 107.109Z" fill="#FFC107"/>
<path d="M33.632 78.3519L68.6773 104.053C78.16 80.5759 101.125 63.9999 128 63.9999C144.315 63.9999 159.157 70.1546 170.459 80.2079L200.629 50.0373C181.579 32.2826 156.096 21.3333 128 21.3333C87.0293 21.3333 51.4986 44.4639 33.632 78.3519Z" fill="#FF3D00"/>
<path d="M128 234.667C155.552 234.667 180.587 224.123 199.515 206.976L166.501 179.04C155.432 187.458 141.906 192.011 128 192C100.256 192 76.6987 174.309 67.824 149.621L33.04 176.421C50.6934 210.965 86.544 234.667 128 234.667Z" fill="#4CAF50"/>
<path d="M232.592 107.109H224V106.667H128V149.333H188.283C184.076 161.154 176.498 171.484 166.485 179.045L166.501 179.035L199.515 206.971C197.179 209.093 234.667 181.333 234.667 128C234.667 120.848 233.931 113.867 232.592 107.109Z" fill="#1976D2"/>
</svg>
