<svg width="658" height="705" viewBox="0 0 658 705" fill="none" xmlns="http://www.w3.org/2000/svg">
<rect x="167.852" y="190.297" width="238.867" height="175.384" rx="20" fill="#269126"/>
<rect x="188.296" y="236.564" width="196.903" height="111.901" rx="1" fill="white"/>
<g filter="url(#filter0_d_22_224)">
<ellipse cx="217.885" cy="193.525" rx="84.4641" ry="85.0021" fill="#F1F1F1"/>
</g>
<path d="M167.068 245.07C180.026 258.166 197.874 266.276 217.555 266.276C237.232 266.276 255.083 258.168 268.042 245.075C268.093 245.031 268.155 245.015 268.202 244.968C268.251 244.918 268.269 244.853 268.313 244.798C281.207 231.632 289.187 213.498 289.187 193.505C289.187 173.514 281.207 155.38 268.313 142.214C268.269 142.159 268.251 142.091 268.202 142.044C268.155 141.997 268.093 141.982 268.042 141.937C255.083 128.844 237.232 120.736 217.555 120.736C197.874 120.736 180.026 128.847 167.068 141.943C167.018 141.984 166.956 142 166.91 142.047C166.861 142.097 166.843 142.162 166.799 142.217C153.908 155.38 145.924 173.514 145.924 193.508C145.924 213.501 153.905 231.635 166.799 244.801C166.843 244.853 166.861 244.918 166.91 244.968C166.956 245.012 167.018 245.028 167.068 245.07ZM150.416 195.741H162.025C163.25 195.741 164.243 194.741 164.243 193.505C164.243 192.266 163.25 191.267 162.025 191.267H150.416C150.964 174.13 157.743 158.574 168.533 146.865L176.72 155.182C177.152 155.62 177.723 155.842 178.292 155.842C178.858 155.842 179.421 155.626 179.855 155.193C180.724 154.321 180.729 152.907 179.863 152.028L171.658 143.691C183.176 132.721 198.479 125.826 215.34 125.265V137.075C215.34 138.314 216.332 139.313 217.557 139.313C218.782 139.313 219.775 138.314 219.775 137.075V125.265C236.635 125.826 251.935 132.718 263.454 143.688L255.251 152.028C254.388 152.907 254.393 154.321 255.262 155.193C255.693 155.626 256.259 155.842 256.825 155.842C257.394 155.842 257.965 155.62 258.399 155.182L266.581 146.865C277.371 158.574 284.153 174.13 284.701 191.267H273.092C271.864 191.267 270.874 192.266 270.874 193.505C270.874 194.741 271.864 195.741 273.092 195.741H284.701C284.153 212.88 277.374 228.434 266.581 240.142L258.399 231.825C257.531 230.948 256.13 230.943 255.262 231.815C254.393 232.686 254.388 234.1 255.251 234.979L263.454 243.319C251.935 254.289 236.635 261.181 219.775 261.742V249.932C219.775 248.693 218.782 247.694 217.557 247.694C216.332 247.694 215.34 248.693 215.34 249.932V261.742C198.479 261.181 183.176 254.289 171.658 243.317L179.863 234.979C180.729 234.1 180.724 232.686 179.855 231.817C178.987 230.943 177.584 230.951 176.72 231.825L168.533 240.142C157.743 228.436 150.961 212.88 150.416 195.741Z" fill="#269126"/>
<path d="M212.297 187.742C210.764 189.182 209.787 191.225 209.787 193.505C209.787 197.846 213.271 201.383 217.556 201.383C219.823 201.383 221.846 200.376 223.268 198.801L263.931 215.327C264.2 215.437 264.479 215.489 264.758 215.489C265.635 215.489 266.467 214.959 266.816 214.085C267.27 212.94 266.723 211.636 265.585 211.174L225.201 194.762C225.266 194.35 225.325 193.935 225.325 193.505C225.325 189.161 221.841 185.626 217.556 185.626C217.114 185.626 216.69 185.686 216.269 185.757L202.918 155.907C202.414 154.783 201.101 154.272 199.987 154.788C198.868 155.297 198.372 156.622 198.878 157.747L212.297 187.742ZM220.893 193.505C220.893 195.381 219.396 196.907 217.556 196.907C215.716 196.907 214.22 195.378 214.22 193.505C214.22 191.629 215.716 190.1 217.556 190.1C219.396 190.1 220.893 191.627 220.893 193.505Z" fill="#269126"/>
<mask id="mask0_22_224" style="mask-type:luminance" maskUnits="userSpaceOnUse" x="129" y="103" width="280" height="265">
<path d="M129.247 103.805H408.878V367.585H129.247V103.805Z" fill="white"/>
</mask>
<g mask="url(#mask0_22_224)">
<path d="M389.112 179.981H366.93V169.184C366.93 164.248 362.953 160.233 358.063 160.233H354.706C349.816 160.233 345.839 164.248 345.839 169.184V179.981H304.842C298.404 136.916 261.718 103.805 217.557 103.805C168.877 103.805 129.27 144.043 129.27 193.505C129.27 223.135 143.495 249.447 165.365 265.791V348.077C165.365 358.974 174.098 367.843 184.831 367.843H389.112C399.846 367.843 408.576 358.974 408.576 348.077V199.748C408.578 188.848 399.848 179.981 389.112 179.981ZM350.271 169.184C350.271 166.716 352.261 164.707 354.706 164.707H358.063C360.508 164.707 362.498 166.716 362.498 169.184V195.253C362.498 197.721 360.508 199.73 358.063 199.73H354.706C352.261 199.73 350.271 197.721 350.271 195.253V169.184ZM345.839 184.458V195.253C345.839 200.189 349.816 204.204 354.706 204.204H358.063C362.953 204.204 366.93 200.189 366.93 195.253V184.458H389.112C397.401 184.458 404.146 191.316 404.146 199.748V216.658H302.849C304.795 209.267 305.85 201.511 305.85 193.505C305.85 190.45 305.695 187.435 305.4 184.458H345.839ZM133.703 193.505C133.703 146.511 171.322 108.279 217.557 108.279C263.796 108.279 301.412 146.511 301.412 193.505C301.412 240.497 263.796 278.728 217.557 278.728C171.322 278.728 133.703 240.497 133.703 193.505ZM326.404 238.06V261.797H303.071V238.06H326.404ZM354.166 238.06V261.797H330.839V238.06H354.166ZM381.93 238.06V261.797H358.601V238.06H381.93ZM330.839 346.439V322.701H354.166V346.439H330.839ZM303.071 346.439V322.701H326.404V346.439H303.071ZM298.076 346.439H275.307V322.701H298.636V346.439H298.076ZM247.542 346.439V322.701H270.874V346.439H247.542ZM219.775 346.439V322.701H243.105V346.439H219.775ZM192.01 346.439V322.701H215.34V346.439H192.01ZM215.34 283.145V290.011H192.01V279.357C199.425 281.642 207.251 282.941 215.34 283.145ZM243.107 279.359V290.014H219.775V283.147C227.867 282.941 235.69 281.642 243.107 279.359ZM269.083 266.274H270.872V290.011H247.539V277.867C255.282 275.021 262.516 271.09 269.083 266.274ZM326.404 266.274V290.011H303.071V266.274H326.404ZM309.184 318.225H303.071V294.49H326.404V318.225H309.184ZM247.542 318.225V294.49H270.874V318.225H247.542ZM192.01 294.49H215.34V318.225H192.01V294.49ZM219.775 294.49H243.105V318.225H219.775V294.49ZM275.307 294.49H298.636V318.225H275.307V294.49ZM330.839 294.49H354.166V318.225H330.839V294.49ZM358.601 294.49H381.93V318.225H358.601V294.49ZM381.93 290.014H358.601V266.274H381.93V290.014ZM354.166 290.014H330.839V266.274H354.166V290.014ZM298.636 290.014H275.307V266.274H298.636V290.014ZM358.601 322.701H381.93V346.439H358.601V322.701ZM298.636 261.797H275.307V261.265C282.789 254.675 289.167 246.836 294.132 238.06H298.636V261.797ZM389.112 363.367H184.831C176.542 363.367 169.797 356.508 169.797 348.077V268.885C175.335 272.519 181.285 275.553 187.575 277.867V348.674C187.575 349.913 188.568 350.913 189.793 350.913H384.15C385.375 350.913 386.368 349.913 386.368 348.674V235.824C386.368 234.585 385.375 233.586 384.15 233.586H296.507C298.479 229.595 300.166 225.436 301.544 221.135H404.146V348.077C404.146 356.508 397.403 363.367 389.112 363.367Z" fill="#269126"/>
</g>
<mask id="mask1_22_224" style="mask-type:luminance" maskUnits="userSpaceOnUse" x="66" y="42" width="263" height="278">
<path d="M66.8228 42.0742H328.161V319.897H66.8228V42.0742Z" fill="white"/>
</mask>
<g mask="url(#mask1_22_224)">
<mask id="mask2_22_224" style="mask-type:luminance" maskUnits="userSpaceOnUse" x="8" y="-18" width="344" height="359">
<path d="M197.756 -17.5359L351.525 112.988L161.931 340.569L8.1618 210.045L197.756 -17.5359Z" fill="white"/>
</mask>
<g mask="url(#mask2_22_224)">
<mask id="mask3_22_224" style="mask-type:luminance" maskUnits="userSpaceOnUse" x="8" y="-18" width="344" height="359">
<path d="M197.756 -17.5359L351.525 112.988L161.931 340.569L8.1618 210.045L197.756 -17.5359Z" fill="white"/>
</mask>
<g mask="url(#mask3_22_224)">
<path d="M295.945 65.8559L324.906 90.4409C328.215 93.2479 328.649 98.2228 325.886 101.572C325.868 101.593 325.855 101.612 325.842 101.63L310.731 122.57C310.405 123.027 310.403 123.635 310.723 124.091C315.595 131.038 319.642 138.419 322.852 146.101C322.857 146.107 322.857 146.112 322.857 146.114C323.162 146.853 322.73 147.688 321.963 147.862L293.097 154.405C292.521 154.536 291.926 154.254 291.663 153.719C290.182 150.703 288.51 147.763 286.662 144.912C284.292 141.267 281.622 137.772 278.658 134.466C276.88 132.486 274.998 130.574 273.008 128.737C272.125 127.918 271.217 127.115 270.287 126.324C268.509 124.814 266.682 123.39 264.818 122.049C244.507 107.453 219.624 103.088 196.664 108.394C179.307 112.404 163.051 121.939 150.708 136.757C120.537 172.969 125.166 227.01 161.04 257.462C170.246 265.275 180.607 270.774 191.444 274.022C192.01 274.194 192.384 274.734 192.356 275.329L192.221 278.128L190.924 305.137C190.885 305.94 190.136 306.517 189.358 306.342C189.265 306.321 189.172 306.3 189.076 306.279C188.95 306.251 188.826 306.219 188.701 306.188C184.683 305.225 180.697 304.044 176.772 302.638C173.06 301.31 169.396 299.784 165.796 298.054C165.297 297.817 164.7 297.924 164.312 298.323L146.467 316.944C146.451 316.96 146.436 316.975 146.42 316.996C143.626 320.317 138.695 320.74 135.387 317.933L106.423 293.348C103.115 290.541 102.681 285.561 105.446 282.216C105.464 282.198 105.475 282.177 105.49 282.161L120.599 261.216C120.925 260.764 120.93 260.154 120.607 259.697C114.417 250.864 109.55 241.321 106.043 231.366C105.857 230.839 105.361 230.492 104.808 230.497L79.1342 230.925C79.111 230.928 79.0903 230.925 79.0644 230.931C74.7613 231.285 70.9803 228.064 70.6082 223.717L68.6207 200.525L67.3518 185.661C66.977 181.317 70.1585 177.482 74.459 177.091C74.4796 177.088 74.5029 177.088 74.5262 177.083L99.8924 173.055C100.438 172.972 100.867 172.539 100.962 171.986C102.725 161.571 105.893 151.329 110.491 141.554C110.732 141.051 110.628 140.448 110.228 140.06L91.7799 122.043C91.7669 122.028 91.7489 122.012 91.7308 121.999C88.4382 119.176 88.0195 114.199 90.8004 110.86L115.156 81.6232C117.94 78.284 122.871 77.8457 126.189 80.6397C126.205 80.6528 126.223 80.6684 126.241 80.6789L146.989 95.9323C147.436 96.2636 148.04 96.2636 148.493 95.9401C157.246 89.6895 166.698 84.7824 176.562 81.2397C177.082 81.0545 177.428 80.5536 177.42 79.9954L177.351 75.6231L176.997 54.0773C176.999 54.0564 176.997 54.033 176.997 54.0095C176.64 49.6685 179.834 45.8467 184.14 45.471L198.863 44.1875L221.842 42.184C226.147 41.8083 229.941 45.0145 230.332 49.3555C230.332 49.3815 230.337 49.4024 230.339 49.4259L234.327 75.0309C234.415 75.5813 234.839 76.0144 235.384 76.1109C244.298 77.6501 253.085 80.2432 261.554 83.9189C262.89 84.4955 264.216 85.1007 265.534 85.732C266.036 85.9747 266.633 85.8651 267.015 85.4633L269.662 82.7059L271.871 80.4023L278.485 73.5022L284.866 66.8472C284.879 66.8289 284.897 66.8133 284.912 66.795C287.706 63.4689 292.637 63.0488 295.945 65.8559Z" fill="#269126"/>
</g>
</g>
</g>
<path d="M338.413 145.636H370.734C379.573 145.636 394.55 144.584 400.801 149.948C407.049 155.314 408.87 164.417 408.87 172.005V182.795C408.87 190.383 411.353 210.754 405.105 216.12C398.854 221.486 379.573 217.196 370.734 217.196H338.932C330.093 217.196 309.676 222.562 303.425 217.196C297.177 211.83 305.084 190.383 305.084 182.795L303.425 174.245C303.425 166.657 291.797 155.852 298.045 150.486C304.296 145.122 329.573 145.636 338.413 145.636Z" fill="#269126"/>
<path d="M326.451 193.175V157.737H350.104V163.915H333.873V172.357H348.884V178.534H333.873V186.997H350.176V193.175H326.451Z" fill="#269126"/>
<path d="M375.054 167.932C374.914 166.534 374.322 165.448 373.276 164.676C372.234 163.904 370.828 163.518 369.058 163.518C367.238 163.518 365.843 163.894 364.871 164.645C363.899 165.396 363.413 166.343 363.413 167.483C363.393 168.751 363.933 169.711 365.036 170.363C366.137 171.018 367.45 171.522 368.975 171.876L372.128 172.638C374.159 173.097 375.966 173.765 377.545 174.642C379.129 175.518 380.378 176.65 381.287 178.033C382.197 179.41 382.652 181.085 382.652 183.052C382.636 186.295 381.432 188.875 379.034 190.795C376.64 192.715 373.307 193.675 369.027 193.675C364.76 193.675 361.359 192.694 358.823 190.732C356.285 188.771 354.973 185.878 354.885 182.051H362.059C362.188 183.824 362.886 185.16 364.147 186.058C365.408 186.95 367.003 187.393 368.934 187.393C370.82 187.393 372.327 186.992 373.451 186.183C374.573 185.377 375.141 184.325 375.157 183.031C375.141 181.837 374.622 180.913 373.596 180.266C372.567 179.619 371.099 179.066 369.192 178.607L365.367 177.636C362.411 176.922 360.074 175.787 358.358 174.235C356.647 172.677 355.797 170.593 355.805 167.984C355.797 165.842 356.366 163.967 357.51 162.36C358.661 160.747 360.24 159.495 362.245 158.603C364.256 157.706 366.546 157.257 369.109 157.257C371.715 157.257 373.989 157.711 375.932 158.613C377.881 159.511 379.398 160.763 380.481 162.37C381.569 163.972 382.13 165.824 382.166 167.932H375.054Z" fill="#269126"/>
<mask id="mask4_22_224" style="mask-type:luminance" maskUnits="userSpaceOnUse" x="382" y="121" width="71" height="76">
<path d="M382.415 121.793H452.107V196.346H382.415V121.793Z" fill="white"/>
</mask>
<g mask="url(#mask4_22_224)">
<path d="M451.9 150.928C451.794 149.814 451.69 149.057 451.494 147.909C451.334 146.996 451.137 146.091 450.897 145.191C449.961 141.721 448.424 138.546 446.289 135.671C441.986 129.857 435.734 125.696 428.803 123.536C427.045 122.996 425.254 122.607 423.429 122.372C421.579 122.127 419.721 121.981 417.855 121.848C417.454 121.819 417.118 122.218 417.123 122.589C417.123 122.735 417.165 122.868 417.247 122.988C412.614 122.933 408.179 123.864 403.948 125.779C397.988 128.487 392.943 133.084 389.498 138.578C387.338 142.047 385.854 145.791 385.045 149.811C383.934 152.746 383.223 155.777 382.916 158.905C382.608 162.036 382.717 165.148 383.236 168.25C384.35 174.86 387.565 181.061 392.233 185.911C397.06 190.93 403.496 194.369 410.445 195.383C417.759 196.45 425.295 195.026 431.506 190.998C432.436 190.398 433.33 189.746 434.194 189.049C436.494 187.617 438.603 185.94 440.523 184.014C442.443 182.092 444.123 179.973 445.563 177.66C449.522 171.341 451.602 163.982 452 156.586C452.106 154.697 452.073 152.811 451.9 150.928ZM394.706 136.034C395.735 134.855 396.841 133.754 398.022 132.734C398.288 132.504 398.557 132.28 398.831 132.058L399.079 131.86L399.097 131.847L399.141 131.813C399.309 131.685 399.474 131.557 399.642 131.432C400.263 130.973 400.898 130.537 401.55 130.123C402.86 129.298 404.219 128.57 405.63 127.939L405.664 127.923L405.695 127.91L405.987 127.783C406.15 127.717 406.313 127.657 406.478 127.59C406.853 127.438 407.233 127.3 407.615 127.17C408.385 126.903 409.166 126.671 409.957 126.47C410.745 126.272 411.541 126.108 412.345 125.975C412.415 125.964 412.774 125.912 412.756 125.912C412.9 125.891 413.048 125.873 413.193 125.855C413.634 125.8 414.076 125.758 414.518 125.729C416.144 125.604 417.77 125.609 419.395 125.748C419.597 125.766 419.798 125.784 420.002 125.805L420.279 125.836C419.93 125.797 420.302 125.836 420.359 125.847C420.76 125.899 421.163 125.959 421.563 126.029C422.383 126.168 423.194 126.343 424.001 126.549C424.804 126.757 425.598 126.997 426.381 127.271C426.727 127.399 427.071 127.524 427.415 127.652L427.451 127.668L427.497 127.686C427.601 127.73 427.702 127.772 427.805 127.814C427.991 127.892 428.18 127.976 428.363 128.059C427.415 127.83 426.456 127.652 425.494 127.519C422.145 127.044 418.79 127.026 415.436 127.459C413.782 127.676 412.154 128.012 410.551 128.466C408.967 128.912 407.39 129.403 405.858 129.99C404.822 130.386 403.806 130.827 402.811 131.315C401.594 131.831 400.407 132.413 399.252 133.06C398.526 133.462 397.823 133.903 397.141 134.38C396.419 134.886 395.722 135.418 395.039 135.971C394.724 136.225 394.411 136.485 394.104 136.754C394.298 136.512 394.499 136.271 394.706 136.034ZM410.536 192.707C408.76 192.415 407.023 191.966 405.323 191.363C405.137 191.296 404.948 191.228 404.762 191.155L404.483 191.048L404.341 190.99C403.922 190.823 403.511 190.643 403.103 190.45C402.382 190.111 401.676 189.749 400.984 189.36C400.291 188.971 399.624 188.556 398.981 188.121C398.655 187.904 398.332 187.68 398.017 187.448L397.947 187.398C397.988 187.427 397.81 187.294 397.776 187.27C397.608 187.142 397.44 187.017 397.278 186.876C396.045 185.906 394.892 184.847 393.814 183.704C393.254 183.112 392.716 182.496 392.202 181.862V181.87L392.194 181.86C392.176 181.839 392.142 181.797 392.127 181.776L392.003 181.625C391.894 181.484 391.786 181.343 391.677 181.2C391.421 180.86 391.171 180.516 390.925 180.161C390.031 178.875 389.232 177.532 388.532 176.128C388.356 175.779 388.188 175.426 388.03 175.069C387.999 175.006 387.971 174.944 387.943 174.876C388.074 175.168 387.927 174.839 387.909 174.795C387.824 174.599 387.741 174.404 387.658 174.206C387.356 173.467 387.082 172.719 386.836 171.959C386.369 170.496 386.007 169.004 385.751 167.485C386.973 171.839 388.909 175.839 391.558 179.483C395.776 185.254 401.578 189.743 408.435 192.023C409.362 192.331 410.301 192.597 411.254 192.816C411.014 192.785 410.773 192.749 410.536 192.707ZM445.144 158.404C445.134 159.236 445.1 160.066 445.046 160.898C445.015 161.355 444.979 161.811 444.935 162.265C444.914 162.471 444.893 162.68 444.87 162.886C444.857 163.014 444.842 163.134 444.829 163.259C444.829 163.288 444.826 163.314 444.821 163.332C444.821 163.345 444.821 163.369 444.811 163.4C444.57 165.26 444.219 167.097 443.751 168.912C443.521 169.794 443.262 170.671 442.973 171.539C442.836 171.954 442.691 172.366 442.541 172.776C442.461 172.99 442.381 173.204 442.296 173.41C442.265 173.488 442.236 173.564 442.205 173.642C442.192 173.673 442.092 173.919 442.079 173.966C441.394 175.609 440.59 177.193 439.673 178.716C439.257 179.41 438.812 180.088 438.342 180.754C438.215 180.934 438.083 181.114 437.951 181.294L437.82 181.471L437.703 181.633C437.46 181.948 437.212 182.259 436.959 182.564C435.907 183.837 434.767 185.021 433.537 186.12C433.248 186.373 432.956 186.623 432.661 186.874C431.989 187.283 431.299 187.667 430.599 188.027C430.237 188.212 429.87 188.392 429.498 188.562L429.084 188.747L428.906 188.825L428.495 188.995C426.975 189.608 425.417 190.085 423.817 190.427C423.414 190.513 423.008 190.589 422.6 190.659L422.305 190.706L422.251 190.714L422.192 190.722C421.954 190.753 421.719 190.784 421.481 190.808C420.612 190.904 419.739 190.962 418.863 190.975C417.987 190.99 417.111 190.964 416.24 190.902C415.834 190.873 415.428 190.834 415.022 190.787L414.821 190.761L414.583 190.729C414.327 190.693 414.071 190.654 413.815 190.612C412.063 190.317 410.344 189.879 408.667 189.289C408.29 189.162 407.915 189.015 407.54 188.872L407.478 188.851L407.421 188.825C407.31 188.781 407.199 188.734 407.091 188.687C406.868 188.595 406.649 188.499 406.432 188.4C405.633 188.04 404.85 187.646 404.085 187.221C403.346 186.808 402.627 186.368 401.927 185.898C401.591 185.674 401.258 185.441 400.924 185.201L400.704 185.042L400.666 185.014C400.49 184.878 400.314 184.745 400.141 184.607C398.839 183.579 397.616 182.46 396.476 181.249C395.921 180.654 395.386 180.047 394.871 179.42L394.773 179.303C394.89 179.444 394.696 179.204 394.67 179.175C394.556 179.032 394.442 178.886 394.331 178.74C394.06 178.387 393.799 178.033 393.543 177.67C392.607 176.342 391.765 174.954 391.013 173.509C390.824 173.152 390.641 172.789 390.465 172.424C390.382 172.259 390.302 172.092 390.23 171.925C390.183 171.826 390.137 171.725 390.09 171.625C390.082 171.607 390.036 171.498 390.013 171.451C389.682 170.689 389.372 169.906 389.09 169.121C388.483 167.415 388.002 165.675 387.653 163.896C387.573 163.497 387.501 163.097 387.436 162.696C387.423 162.612 387.41 162.529 387.397 162.443C387.397 162.411 387.364 162.226 387.361 162.203C387.327 161.963 387.296 161.72 387.268 161.48C387.162 160.59 387.087 159.703 387.046 158.814C386.963 157.027 387.01 155.245 387.193 153.468C387.203 153.341 387.216 153.226 387.232 153.106L387.258 152.887C387.278 152.717 387.302 152.548 387.327 152.381C387.395 151.919 387.47 151.46 387.555 151.003C387.674 150.361 387.811 149.725 387.968 149.091C388.054 148.89 388.142 148.689 388.235 148.488C388.912 146.996 389.695 145.561 390.576 144.184C390.798 143.84 391.028 143.503 391.264 143.169C391.367 143.02 391.47 142.874 391.576 142.728L391.762 142.459L391.873 142.313C392.346 141.693 392.861 141.111 393.365 140.513L393.538 140.289C393.481 140.375 393.494 140.367 393.574 140.266C393.652 140.192 393.719 140.104 393.791 140.026C393.918 139.892 394.034 139.759 394.158 139.629C394.442 139.326 394.732 139.032 395.029 138.742C395.605 138.173 396.202 137.625 396.82 137.098C398.001 136.102 399.234 135.173 400.516 134.312C403.178 132.515 406.036 131.124 409.086 130.144C410.432 129.71 411.799 129.358 413.187 129.095C413.521 129.045 413.854 128.998 414.188 128.954C414.919 128.852 415.653 128.774 416.387 128.714C417.015 128.68 417.635 128.667 418.253 128.664C418.312 128.667 418.361 128.643 418.4 128.594C420.214 128.534 422.026 128.594 423.835 128.774C427.156 129.11 430.493 129.935 433.416 131.565C434.331 132.079 435.194 132.671 436.003 133.344L436.029 133.368C436.582 133.924 437.111 134.503 437.618 135.105C437.719 135.231 437.82 135.345 437.918 135.468C437.936 135.491 438.127 135.731 438.158 135.771C438.414 136.105 438.662 136.438 438.902 136.78C439.789 138.035 440.577 139.35 441.272 140.722C441.446 141.066 441.614 141.413 441.774 141.763C441.838 141.901 441.898 142.039 441.965 142.18C441.978 142.209 441.991 142.243 442.001 142.261C442.05 142.373 442.097 142.486 442.146 142.6C442.446 143.315 442.722 144.038 442.978 144.768C443.492 146.258 443.916 147.774 444.247 149.315C444.415 150.098 444.555 150.883 444.684 151.674C444.684 151.684 444.684 151.7 444.689 151.713L444.723 151.953C444.746 152.128 444.772 152.305 444.792 152.48C444.847 152.902 444.893 153.328 444.935 153.75C445.087 155.297 445.157 156.849 445.144 158.404ZM449.463 157.05C449.424 157.509 449.377 157.963 449.326 158.417C449.326 158.43 449.297 158.663 449.297 158.673C449.289 158.725 449.282 158.78 449.276 158.832C449.243 159.077 449.209 159.325 449.173 159.57C449.036 160.486 448.873 161.396 448.682 162.302C448.315 164.013 447.865 165.704 447.333 167.371C447.064 168.203 446.772 169.027 446.454 169.844C446.384 170.029 446.312 170.214 446.237 170.399C446.227 170.423 446.149 170.611 446.147 170.618C446.116 170.697 446.082 170.772 446.051 170.848C446.007 170.947 445.963 171.049 445.919 171.148C446.676 168.599 447.206 166.001 447.514 163.356C447.927 159.964 447.953 156.573 447.591 153.176C446.886 146.68 444.787 140.2 440.856 134.886C438.859 132.163 436.468 129.857 433.685 127.97C435.152 128.724 436.558 129.585 437.905 130.545L438.13 130.71L438.192 130.757L438.254 130.801C438.401 130.913 438.548 131.025 438.696 131.14C439.047 131.414 439.394 131.696 439.732 131.985C440.355 132.512 440.957 133.063 441.536 133.634C442.115 134.205 442.671 134.803 443.2 135.421C443.322 135.562 443.441 135.703 443.56 135.844L443.728 136.055L443.862 136.222C444.113 136.54 444.358 136.866 444.593 137.195C446.612 139.966 448.007 143.026 448.783 146.375C448.878 146.777 448.966 147.181 449.049 147.586C449.096 147.828 449.139 148.071 449.183 148.316L449.225 148.559C449.238 148.64 449.251 148.723 449.264 148.804C449.264 148.841 449.274 148.869 449.276 148.89C449.403 149.777 449.488 150.677 449.543 151.577C449.643 153.406 449.615 155.232 449.463 157.056V157.05Z" fill="#F42F2F"/>
</g>
<path d="M416.804 143.629L416.762 143.586C416.783 143.644 416.814 143.692 416.862 143.731C416.843 143.702 416.825 143.671 416.812 143.642L416.804 143.629Z" fill="#F42F2F"/>
<path d="M428.011 156.572C427.9 155.829 427.386 155.328 426.683 155.085C425.665 154.736 424.354 155.161 423.308 155.341L421.884 155.579L421.282 145.989C421.145 143.792 420.772 141.369 418.687 140.127C417.529 139.443 415.996 139.386 414.761 139.884C413.474 140.406 412.507 141.259 411.763 142.415C411.12 143.409 410.734 144.559 410.331 145.66C409.915 146.808 409.509 147.961 409.117 149.122C408.349 151.407 407.641 153.713 406.995 156.045C406.798 156.75 406.61 157.457 406.424 158.166L404.353 158.513C402.456 158.832 400.56 159.163 398.663 159.492C398.507 159.499 398.355 159.526 398.205 159.57H398.174C397.81 159.679 397.502 159.88 397.251 160.173C397.003 160.465 396.851 160.801 396.797 161.182C396.753 161.48 396.781 161.772 396.879 162.056C396.977 162.338 397.135 162.583 397.352 162.789C397.895 163.311 398.541 163.376 399.249 163.259C401.306 162.927 403.364 162.591 405.421 162.254C405.289 162.828 405.165 163.402 405.044 163.976C404.757 165.325 404.488 166.679 404.242 168.038C404.116 168.719 404.02 169.4 403.922 170.086C403.821 170.871 403.787 171.659 403.824 172.449C403.829 172.653 403.873 172.849 403.948 173.036C404.025 173.222 404.131 173.391 404.268 173.54C404.403 173.689 404.56 173.809 404.741 173.9C404.919 173.989 405.108 174.046 405.307 174.067C406.17 174.171 406.871 173.647 407.142 172.849C407.323 172.319 407.543 171.792 407.656 171.244C407.773 170.66 407.884 170.078 407.995 169.494C408.215 168.351 408.419 167.214 408.651 166.079C408.964 164.568 409.3 163.063 409.662 161.563L418.191 160.152C418.191 160.243 418.201 160.334 418.206 160.426L419.155 175.598C419.08 175.927 419.08 176.256 419.155 176.584L419.294 177.21C419.509 178.165 420.579 178.726 421.499 178.593C422.419 178.46 423.261 177.62 423.199 176.636C422.843 170.923 422.483 165.213 422.127 159.502L423.825 159.215L425.399 158.954C426.024 158.85 426.649 158.785 427.161 158.383C427.758 157.919 428.13 157.36 428.011 156.572ZM415.156 156.698L410.727 157.441C411.758 153.682 412.952 149.97 414.306 146.299C414.391 146.07 414.477 145.837 414.57 145.608C414.57 145.605 414.57 145.603 414.57 145.6C414.565 145.61 414.559 145.621 414.554 145.631L414.575 145.59C414.588 145.556 414.611 145.506 414.624 145.475L414.686 145.337C414.787 145.117 414.895 144.901 415.014 144.692C415.079 144.577 415.146 144.463 415.218 144.35C415.257 144.29 415.399 144.123 415.412 144.103C415.513 143.996 415.614 143.886 415.722 143.784L415.777 143.732C415.854 143.685 415.952 143.643 415.999 143.617L416.064 143.581L416.128 143.552C416.198 143.531 416.275 143.516 416.291 143.51C416.304 143.505 416.379 143.492 416.438 143.482H416.451L416.516 143.471H416.537L416.565 143.476H416.635C416.632 143.482 416.627 143.487 416.622 143.489L416.676 143.505H416.694L416.699 143.51L416.725 143.542C416.736 143.555 416.748 143.565 416.761 143.578C416.756 143.57 416.754 143.563 416.751 143.552L416.772 143.565C416.779 143.578 416.79 143.596 416.8 143.617C416.836 143.651 416.87 143.685 416.898 143.722C416.885 143.732 416.872 143.732 416.86 143.722C416.885 143.769 416.911 143.813 416.937 143.85L416.945 143.86C417.069 144.251 417.139 144.643 417.239 145.036C417.1 144.496 417.239 145.102 417.252 145.263C417.273 145.517 417.289 145.772 417.307 146.025C417.519 149.424 417.731 152.824 417.942 156.223L415.156 156.698Z" fill="#F42F2F"/>
<path d="M416.457 143.482C416.504 143.506 416.581 143.524 416.623 143.495L416.568 143.479L416.457 143.482Z" fill="#F42F2F"/>
<path d="M414.569 145.602C414.653 145.42 414.65 145.423 414.624 145.473C414.601 145.523 414.59 145.552 414.574 145.591C414.574 145.594 414.572 145.599 414.569 145.602Z" fill="#F42F2F"/>
<path d="M438.091 143.751C437.618 143.044 436.861 142.801 436.037 142.955C434.806 143.185 433.574 143.414 432.343 143.647C432.333 143.521 432.325 143.394 432.318 143.266C432.287 142.76 432.253 142.253 432.219 141.75C432.175 141.069 432.207 140.354 431.814 139.754C431.162 138.763 429.485 138.622 428.904 139.793C428.583 140.44 428.617 141.02 428.653 141.708C428.681 142.214 428.71 142.72 428.738 143.224L428.798 144.322C427.513 144.565 426.231 144.813 424.947 145.063C424.037 145.241 423.456 146.388 423.74 147.228C424.073 148.201 424.955 148.593 425.931 148.421C426.955 148.241 427.976 148.058 428.997 147.873C429.079 149.263 429.165 150.656 429.247 152.047C429.291 152.809 429.803 153.586 430.599 153.756C431.315 153.907 432.32 153.649 432.63 152.908C432.669 152.814 432.708 152.722 432.747 152.631C432.94 152.169 433.059 151.752 432.909 151.248C432.884 151.157 432.847 151.066 432.804 150.98C432.729 149.728 432.654 148.473 432.574 147.221L435.902 146.6C436.039 146.631 436.176 146.649 436.318 146.647C436.923 146.641 437.417 146.31 437.838 145.919C438.396 145.4 438.518 144.385 438.091 143.751Z" fill="#F42F2F"/>
<path d="M296.349 193.525C296.349 237.193 261.184 272.527 217.885 272.527C174.586 272.527 139.421 237.193 139.421 193.525C139.421 149.857 174.586 114.523 217.885 114.523C261.184 114.523 296.349 149.857 296.349 193.525Z" stroke="white" stroke-width="12"/>
<path d="M308.294 215.79V172.153H337.697V179.76H317.52V190.158H336.184V197.764H317.52V208.183H337.782V215.79H308.294ZM368.704 184.703C368.533 182.984 367.802 181.649 366.509 180.697C365.217 179.746 363.462 179.27 361.246 179.27C359.741 179.27 358.469 179.483 357.433 179.909C356.396 180.321 355.6 180.896 355.046 181.635C354.506 182.374 354.236 183.212 354.236 184.149C354.208 184.93 354.371 185.612 354.727 186.195C355.096 186.777 355.6 187.281 356.239 187.707C356.879 188.119 357.617 188.482 358.455 188.794C359.293 189.092 360.188 189.348 361.14 189.561L365.06 190.499C366.964 190.925 368.711 191.493 370.302 192.203C371.893 192.913 373.271 193.787 374.435 194.824C375.6 195.861 376.502 197.082 377.141 198.489C377.795 199.895 378.129 201.507 378.143 203.325C378.129 205.996 377.447 208.311 376.097 210.271C374.762 212.217 372.83 213.73 370.302 214.81C367.788 215.875 364.755 216.408 361.204 216.408C357.681 216.408 354.613 215.868 351.999 214.788C349.4 213.709 347.369 212.111 345.906 209.994C344.457 207.864 343.697 205.229 343.626 202.09H352.553C352.653 203.553 353.072 204.774 353.81 205.754C354.563 206.72 355.565 207.452 356.815 207.949C358.079 208.432 359.506 208.673 361.097 208.673C362.66 208.673 364.016 208.446 365.167 207.991C366.332 207.537 367.234 206.905 367.873 206.095C368.512 205.286 368.832 204.355 368.832 203.304C368.832 202.324 368.54 201.5 367.958 200.832C367.39 200.165 366.552 199.597 365.444 199.128C364.35 198.659 363.008 198.233 361.417 197.849L356.665 196.656C352.986 195.761 350.082 194.362 347.951 192.459C345.82 190.555 344.762 187.991 344.776 184.767C344.762 182.125 345.465 179.817 346.886 177.842C348.32 175.868 350.288 174.327 352.788 173.219C355.288 172.111 358.129 171.557 361.31 171.557C364.549 171.557 367.376 172.111 369.79 173.219C372.219 174.327 374.109 175.868 375.458 177.842C376.808 179.817 377.504 182.104 377.546 184.703H368.704Z" fill="white"/>
<path d="M227.68 411.88L216.7 454H204.28L197.56 426.28L190.6 454H178.18L167.5 411.88H178.48L184.54 442.54L192.04 411.88H203.32L210.52 442.54L216.64 411.88H227.68ZM264.385 436.72C264.385 437.68 264.325 438.68 264.205 439.72H240.985C241.145 441.8 241.805 443.4 242.965 444.52C244.165 445.6 245.625 446.14 247.345 446.14C249.905 446.14 251.685 445.06 252.685 442.9H263.605C263.045 445.1 262.025 447.08 260.545 448.84C259.105 450.6 257.285 451.98 255.085 452.98C252.885 453.98 250.425 454.48 247.705 454.48C244.425 454.48 241.505 453.78 238.945 452.38C236.385 450.98 234.385 448.98 232.945 446.38C231.505 443.78 230.785 440.74 230.785 437.26C230.785 433.78 231.485 430.74 232.885 428.14C234.325 425.54 236.325 423.54 238.885 422.14C241.445 420.74 244.385 420.04 247.705 420.04C250.945 420.04 253.825 420.72 256.345 422.08C258.865 423.44 260.825 425.38 262.225 427.9C263.665 430.42 264.385 433.36 264.385 436.72ZM253.885 434.02C253.885 432.26 253.285 430.86 252.085 429.82C250.885 428.78 249.385 428.26 247.585 428.26C245.865 428.26 244.405 428.76 243.205 429.76C242.045 430.76 241.325 432.18 241.045 434.02H253.885ZM280.058 409.6V454H269.798V409.6H280.058ZM285.453 437.26C285.453 433.78 286.153 430.74 287.553 428.14C288.993 425.54 290.973 423.54 293.493 422.14C296.053 420.74 298.973 420.04 302.253 420.04C306.453 420.04 309.953 421.14 312.753 423.34C315.593 425.54 317.453 428.64 318.333 432.64H307.413C306.493 430.08 304.713 428.8 302.073 428.8C300.193 428.8 298.693 429.54 297.573 431.02C296.453 432.46 295.893 434.54 295.893 437.26C295.893 439.98 296.453 442.08 297.573 443.56C298.693 445 300.193 445.72 302.073 445.72C304.713 445.72 306.493 444.44 307.413 441.88H318.333C317.453 445.8 315.593 448.88 312.753 451.12C309.913 453.36 306.413 454.48 302.253 454.48C298.973 454.48 296.053 453.78 293.493 452.38C290.973 450.98 288.993 448.98 287.553 446.38C286.153 443.78 285.453 440.74 285.453 437.26ZM339.062 454.48C335.782 454.48 332.822 453.78 330.182 452.38C327.582 450.98 325.522 448.98 324.002 446.38C322.522 443.78 321.782 440.74 321.782 437.26C321.782 433.82 322.542 430.8 324.062 428.2C325.582 425.56 327.662 423.54 330.302 422.14C332.942 420.74 335.902 420.04 339.182 420.04C342.462 420.04 345.422 420.74 348.062 422.14C350.702 423.54 352.782 425.56 354.302 428.2C355.822 430.8 356.582 433.82 356.582 437.26C356.582 440.7 355.802 443.74 354.242 446.38C352.722 448.98 350.622 450.98 347.942 452.38C345.302 453.78 342.342 454.48 339.062 454.48ZM339.062 445.6C341.022 445.6 342.682 444.88 344.042 443.44C345.442 442 346.142 439.94 346.142 437.26C346.142 434.58 345.462 432.52 344.102 431.08C342.782 429.64 341.142 428.92 339.182 428.92C337.182 428.92 335.522 429.64 334.202 431.08C332.882 432.48 332.222 434.54 332.222 437.26C332.222 439.94 332.862 442 334.142 443.44C335.462 444.88 337.102 445.6 339.062 445.6ZM404.745 420.16C408.905 420.16 412.205 421.42 414.645 423.94C417.125 426.46 418.365 429.96 418.365 434.44V454H408.165V435.82C408.165 433.66 407.585 432 406.425 430.84C405.305 429.64 403.745 429.04 401.745 429.04C399.745 429.04 398.165 429.64 397.005 430.84C395.885 432 395.325 433.66 395.325 435.82V454H385.125V435.82C385.125 433.66 384.545 432 383.385 430.84C382.265 429.64 380.705 429.04 378.705 429.04C376.705 429.04 375.125 429.64 373.965 430.84C372.845 432 372.285 433.66 372.285 435.82V454H362.025V420.52H372.285V424.72C373.325 423.32 374.685 422.22 376.365 421.42C378.045 420.58 379.945 420.16 382.065 420.16C384.585 420.16 386.825 420.7 388.785 421.78C390.785 422.86 392.345 424.4 393.465 426.4C394.625 424.56 396.205 423.06 398.205 421.9C400.205 420.74 402.385 420.16 404.745 420.16ZM457.1 436.72C457.1 437.68 457.04 438.68 456.92 439.72H433.7C433.86 441.8 434.52 443.4 435.68 444.52C436.88 445.6 438.34 446.14 440.06 446.14C442.62 446.14 444.4 445.06 445.4 442.9H456.32C455.76 445.1 454.74 447.08 453.26 448.84C451.82 450.6 450 451.98 447.8 452.98C445.6 453.98 443.14 454.48 440.42 454.48C437.14 454.48 434.22 453.78 431.66 452.38C429.1 450.98 427.1 448.98 425.66 446.38C424.22 443.78 423.5 440.74 423.5 437.26C423.5 433.78 424.2 430.74 425.6 428.14C427.04 425.54 429.04 423.54 431.6 422.14C434.16 420.74 437.1 420.04 440.42 420.04C443.66 420.04 446.54 420.72 449.06 422.08C451.58 423.44 453.54 425.38 454.94 427.9C456.38 430.42 457.1 433.36 457.1 436.72ZM446.6 434.02C446.6 432.26 446 430.86 444.8 429.82C443.6 428.78 442.1 428.26 440.3 428.26C438.58 428.26 437.12 428.76 435.92 429.76C434.76 430.76 434.04 432.18 433.76 434.02H446.6ZM493.888 445.3V454H488.668C484.948 454 482.048 453.1 479.968 451.3C477.888 449.46 476.848 446.48 476.848 442.36V429.04H472.768V420.52H476.848V412.36H487.108V420.52H493.828V429.04H487.108V442.48C487.108 443.48 487.348 444.2 487.828 444.64C488.308 445.08 489.108 445.3 490.228 445.3H493.888ZM514.843 454.48C511.563 454.48 508.603 453.78 505.963 452.38C503.363 450.98 501.303 448.98 499.783 446.38C498.303 443.78 497.563 440.74 497.563 437.26C497.563 433.82 498.323 430.8 499.843 428.2C501.363 425.56 503.443 423.54 506.083 422.14C508.723 420.74 511.683 420.04 514.963 420.04C518.243 420.04 521.203 420.74 523.843 422.14C526.483 423.54 528.563 425.56 530.083 428.2C531.603 430.8 532.363 433.82 532.363 437.26C532.363 440.7 531.583 443.74 530.023 446.38C528.503 448.98 526.403 450.98 523.723 452.38C521.083 453.78 518.123 454.48 514.843 454.48ZM514.843 445.6C516.803 445.6 518.463 444.88 519.823 443.44C521.223 442 521.923 439.94 521.923 437.26C521.923 434.58 521.243 432.52 519.883 431.08C518.563 429.64 516.923 428.92 514.963 428.92C512.963 428.92 511.303 429.64 509.983 431.08C508.663 432.48 508.003 434.54 508.003 437.26C508.003 439.94 508.643 442 509.923 443.44C511.243 444.88 512.883 445.6 514.843 445.6ZM185.5 491.88C189.94 491.88 193.82 492.76 197.14 494.52C200.46 496.28 203.02 498.76 204.82 501.96C206.66 505.12 207.58 508.78 207.58 512.94C207.58 517.06 206.66 520.72 204.82 523.92C203.02 527.12 200.44 529.6 197.08 531.36C193.76 533.12 189.9 534 185.5 534H169.72V491.88H185.5ZM184.84 525.12C188.72 525.12 191.74 524.06 193.9 521.94C196.06 519.82 197.14 516.82 197.14 512.94C197.14 509.06 196.06 506.04 193.9 503.88C191.74 501.72 188.72 500.64 184.84 500.64H179.98V525.12H184.84ZM211.274 517.2C211.274 513.76 211.914 510.74 213.194 508.14C214.514 505.54 216.294 503.54 218.534 502.14C220.774 500.74 223.274 500.04 226.034 500.04C228.394 500.04 230.454 500.52 232.214 501.48C234.014 502.44 235.394 503.7 236.354 505.26V500.52H246.614V534H236.354V529.26C235.354 530.82 233.954 532.08 232.154 533.04C230.394 534 228.334 534.48 225.974 534.48C223.254 534.48 220.774 533.78 218.534 532.38C216.294 530.94 214.514 528.92 213.194 526.32C211.914 523.68 211.274 520.64 211.274 517.2ZM236.354 517.26C236.354 514.7 235.634 512.68 234.194 511.2C232.794 509.72 231.074 508.98 229.034 508.98C226.994 508.98 225.254 509.72 223.814 511.2C222.414 512.64 221.714 514.64 221.714 517.2C221.714 519.76 222.414 521.8 223.814 523.32C225.254 524.8 226.994 525.54 229.034 525.54C231.074 525.54 232.794 524.8 234.194 523.32C235.634 521.84 236.354 519.82 236.354 517.26ZM269.096 524.4L276.356 500.52H287.276L275.396 534H262.736L250.856 500.52H261.836L269.096 524.4ZM289.555 517.2C289.555 513.76 290.195 510.74 291.475 508.14C292.795 505.54 294.575 503.54 296.815 502.14C299.055 500.74 301.555 500.04 304.315 500.04C306.675 500.04 308.735 500.52 310.495 501.48C312.295 502.44 313.675 503.7 314.635 505.26V500.52H324.895V534H314.635V529.26C313.635 530.82 312.235 532.08 310.435 533.04C308.675 534 306.615 534.48 304.255 534.48C301.535 534.48 299.055 533.78 296.815 532.38C294.575 530.94 292.795 528.92 291.475 526.32C290.195 523.68 289.555 520.64 289.555 517.2ZM314.635 517.26C314.635 514.7 313.915 512.68 312.475 511.2C311.075 509.72 309.355 508.98 307.315 508.98C305.275 508.98 303.535 509.72 302.095 511.2C300.695 512.64 299.995 514.64 299.995 517.2C299.995 519.76 300.695 521.8 302.095 523.32C303.535 524.8 305.275 525.54 307.315 525.54C309.355 525.54 311.075 524.8 312.475 523.32C313.915 521.84 314.635 519.82 314.635 517.26ZM347.558 534.48C344.278 534.48 341.318 533.78 338.678 532.38C336.078 530.98 334.018 528.98 332.498 526.38C331.018 523.78 330.278 520.74 330.278 517.26C330.278 513.82 331.038 510.8 332.558 508.2C334.078 505.56 336.158 503.54 338.798 502.14C341.438 500.74 344.398 500.04 347.678 500.04C350.958 500.04 353.918 500.74 356.558 502.14C359.198 503.54 361.278 505.56 362.798 508.2C364.318 510.8 365.078 513.82 365.078 517.26C365.078 520.7 364.298 523.74 362.738 526.38C361.218 528.98 359.118 530.98 356.438 532.38C353.798 533.78 350.838 534.48 347.558 534.48ZM347.558 525.6C349.518 525.6 351.178 524.88 352.538 523.44C353.938 522 354.638 519.94 354.638 517.26C354.638 514.58 353.958 512.52 352.598 511.08C351.278 509.64 349.638 508.92 347.678 508.92C345.678 508.92 344.018 509.64 342.698 511.08C341.378 512.48 340.718 514.54 340.718 517.26C340.718 519.94 341.358 522 342.638 523.44C343.958 524.88 345.598 525.6 347.558 525.6ZM381.196 517.2C381.196 513.76 381.836 510.74 383.116 508.14C384.436 505.54 386.216 503.54 388.456 502.14C390.696 500.74 393.196 500.04 395.956 500.04C398.156 500.04 400.156 500.5 401.956 501.42C403.796 502.34 405.236 503.58 406.276 505.14V489.6H416.536V534H406.276V529.2C405.316 530.8 403.936 532.08 402.136 533.04C400.376 534 398.316 534.48 395.956 534.48C393.196 534.48 390.696 533.78 388.456 532.38C386.216 530.94 384.436 528.92 383.116 526.32C381.836 523.68 381.196 520.64 381.196 517.2ZM406.276 517.26C406.276 514.7 405.556 512.68 404.116 511.2C402.716 509.72 400.996 508.98 398.956 508.98C396.916 508.98 395.176 509.72 393.736 511.2C392.336 512.64 391.636 514.64 391.636 517.2C391.636 519.76 392.336 521.8 393.736 523.32C395.176 524.8 396.916 525.54 398.956 525.54C400.996 525.54 402.716 524.8 404.116 523.32C405.556 521.84 406.276 519.82 406.276 517.26ZM455.518 516.72C455.518 517.68 455.458 518.68 455.338 519.72H432.118C432.278 521.8 432.938 523.4 434.098 524.52C435.298 525.6 436.758 526.14 438.478 526.14C441.038 526.14 442.818 525.06 443.818 522.9H454.738C454.178 525.1 453.158 527.08 451.678 528.84C450.238 530.6 448.418 531.98 446.218 532.98C444.018 533.98 441.558 534.48 438.838 534.48C435.558 534.48 432.638 533.78 430.078 532.38C427.518 530.98 425.518 528.98 424.078 526.38C422.638 523.78 421.918 520.74 421.918 517.26C421.918 513.78 422.618 510.74 424.018 508.14C425.458 505.54 427.458 503.54 430.018 502.14C432.578 500.74 435.518 500.04 438.838 500.04C442.078 500.04 444.958 500.72 447.478 502.08C449.998 503.44 451.958 505.38 453.358 507.9C454.798 510.42 455.518 513.36 455.518 516.72ZM445.018 514.02C445.018 512.26 444.418 510.86 443.218 509.82C442.018 508.78 440.518 508.26 438.718 508.26C436.998 508.26 435.538 508.76 434.338 509.76C433.178 510.76 432.458 512.18 432.178 514.02H445.018ZM471.191 489.6V534H460.931V489.6H471.191ZM529.021 534H518.761L501.601 508.02V534H491.341V491.88H501.601L518.761 517.98V491.88H529.021V534ZM551.698 534.48C548.418 534.48 545.458 533.78 542.818 532.38C540.218 530.98 538.158 528.98 536.638 526.38C535.158 523.78 534.418 520.74 534.418 517.26C534.418 513.82 535.178 510.8 536.698 508.2C538.218 505.56 540.298 503.54 542.938 502.14C545.578 500.74 548.538 500.04 551.818 500.04C555.098 500.04 558.058 500.74 560.698 502.14C563.338 503.54 565.418 505.56 566.938 508.2C568.458 510.8 569.218 513.82 569.218 517.26C569.218 520.7 568.438 523.74 566.878 526.38C565.358 528.98 563.258 530.98 560.578 532.38C557.938 533.78 554.978 534.48 551.698 534.48ZM551.698 525.6C553.658 525.6 555.318 524.88 556.678 523.44C558.078 522 558.778 519.94 558.778 517.26C558.778 514.58 558.098 512.52 556.738 511.08C555.418 509.64 553.778 508.92 551.818 508.92C549.818 508.92 548.158 509.64 546.838 511.08C545.518 512.48 544.858 514.54 544.858 517.26C544.858 519.94 545.498 522 546.778 523.44C548.098 524.88 549.738 525.6 551.698 525.6ZM584.921 506.1C586.121 504.26 587.621 502.82 589.421 501.78C591.221 500.7 593.221 500.16 595.421 500.16V511.02H592.601C590.041 511.02 588.121 511.58 586.841 512.7C585.561 513.78 584.921 515.7 584.921 518.46V534H574.661V500.52H584.921V506.1ZM618.985 525.3V534H613.765C610.045 534 607.145 533.1 605.065 531.3C602.985 529.46 601.945 526.48 601.945 522.36V509.04H597.865V500.52H601.945V492.36H612.205V500.52H618.925V509.04H612.205V522.48C612.205 523.48 612.445 524.2 612.925 524.64C613.405 525.08 614.205 525.3 615.325 525.3H618.985ZM656.26 516.72C656.26 517.68 656.2 518.68 656.08 519.72H632.86C633.02 521.8 633.68 523.4 634.84 524.52C636.04 525.6 637.5 526.14 639.22 526.14C641.78 526.14 643.56 525.06 644.56 522.9H655.48C654.92 525.1 653.9 527.08 652.42 528.84C650.98 530.6 649.16 531.98 646.96 532.98C644.76 533.98 642.3 534.48 639.58 534.48C636.3 534.48 633.38 533.78 630.82 532.38C628.26 530.98 626.26 528.98 624.82 526.38C623.38 523.78 622.66 520.74 622.66 517.26C622.66 513.78 623.36 510.74 624.76 508.14C626.2 505.54 628.2 503.54 630.76 502.14C633.32 500.74 636.26 500.04 639.58 500.04C642.82 500.04 645.7 500.72 648.22 502.08C650.74 503.44 652.7 505.38 654.1 507.9C655.54 510.42 656.26 513.36 656.26 516.72ZM645.76 514.02C645.76 512.26 645.16 510.86 643.96 509.82C642.76 508.78 641.26 508.26 639.46 508.26C637.74 508.26 636.28 508.76 635.08 509.76C633.92 510.76 633.2 512.18 632.92 514.02H645.76ZM184.96 614.42C181.88 614.42 179.12 613.92 176.68 612.92C174.24 611.92 172.28 610.44 170.8 608.48C169.36 606.52 168.6 604.16 168.52 601.4H179.44C179.6 602.96 180.14 604.16 181.06 605C181.98 605.8 183.18 606.2 184.66 606.2C186.18 606.2 187.38 605.86 188.26 605.18C189.14 604.46 189.58 603.48 189.58 602.24C189.58 601.2 189.22 600.34 188.5 599.66C187.82 598.98 186.96 598.42 185.92 597.98C184.92 597.54 183.48 597.04 181.6 596.48C178.88 595.64 176.66 594.8 174.94 593.96C173.22 593.12 171.74 591.88 170.5 590.24C169.26 588.6 168.64 586.46 168.64 583.82C168.64 579.9 170.06 576.84 172.9 574.64C175.74 572.4 179.44 571.28 184 571.28C188.64 571.28 192.38 572.4 195.22 574.64C198.06 576.84 199.58 579.92 199.78 583.88H188.68C188.6 582.52 188.1 581.46 187.18 580.7C186.26 579.9 185.08 579.5 183.64 579.5C182.4 579.5 181.4 579.84 180.64 580.52C179.88 581.16 179.5 582.1 179.5 583.34C179.5 584.7 180.14 585.76 181.42 586.52C182.7 587.28 184.7 588.1 187.42 588.98C190.14 589.9 192.34 590.78 194.02 591.62C195.74 592.46 197.22 593.68 198.46 595.28C199.7 596.88 200.32 598.94 200.32 601.46C200.32 603.86 199.7 606.04 198.46 608C197.26 609.96 195.5 611.52 193.18 612.68C190.86 613.84 188.12 614.42 184.96 614.42ZM225.294 605.3V614H220.074C216.354 614 213.454 613.1 211.374 611.3C209.294 609.46 208.254 606.48 208.254 602.36V589.04H204.174V580.52H208.254V572.36H218.514V580.52H225.234V589.04H218.514V602.48C218.514 603.48 218.754 604.2 219.234 604.64C219.714 605.08 220.514 605.3 221.634 605.3H225.294ZM228.969 597.2C228.969 593.76 229.609 590.74 230.889 588.14C232.209 585.54 233.989 583.54 236.229 582.14C238.469 580.74 240.969 580.04 243.729 580.04C246.089 580.04 248.149 580.52 249.909 581.48C251.709 582.44 253.089 583.7 254.049 585.26V580.52H264.309V614H254.049V609.26C253.049 610.82 251.649 612.08 249.849 613.04C248.089 614 246.029 614.48 243.669 614.48C240.949 614.48 238.469 613.78 236.229 612.38C233.989 610.94 232.209 608.92 230.889 606.32C229.609 603.68 228.969 600.64 228.969 597.2ZM254.049 597.26C254.049 594.7 253.329 592.68 251.889 591.2C250.489 589.72 248.769 588.98 246.729 588.98C244.689 588.98 242.949 589.72 241.509 591.2C240.109 592.64 239.409 594.64 239.409 597.2C239.409 599.76 240.109 601.8 241.509 603.32C242.949 604.8 244.689 605.54 246.729 605.54C248.769 605.54 250.489 604.8 251.889 603.32C253.329 601.84 254.049 599.82 254.049 597.26ZM290.392 605.3V614H285.172C281.452 614 278.552 613.1 276.472 611.3C274.392 609.46 273.352 606.48 273.352 602.36V589.04H269.272V580.52H273.352V572.36H283.612V580.52H290.332V589.04H283.612V602.48C283.612 603.48 283.852 604.2 284.332 604.64C284.812 605.08 285.612 605.3 286.732 605.3H290.392ZM327.667 596.72C327.667 597.68 327.607 598.68 327.487 599.72H304.267C304.427 601.8 305.087 603.4 306.247 604.52C307.447 605.6 308.907 606.14 310.627 606.14C313.187 606.14 314.967 605.06 315.967 602.9H326.887C326.327 605.1 325.307 607.08 323.827 608.84C322.387 610.6 320.567 611.98 318.367 612.98C316.167 613.98 313.707 614.48 310.987 614.48C307.707 614.48 304.787 613.78 302.227 612.38C299.667 610.98 297.667 608.98 296.227 606.38C294.787 603.78 294.067 600.74 294.067 597.26C294.067 593.78 294.767 590.74 296.167 588.14C297.607 585.54 299.607 583.54 302.167 582.14C304.727 580.74 307.667 580.04 310.987 580.04C314.227 580.04 317.107 580.72 319.627 582.08C322.147 583.44 324.107 585.38 325.507 587.9C326.947 590.42 327.667 593.36 327.667 596.72ZM317.167 594.02C317.167 592.26 316.567 590.86 315.367 589.82C314.167 588.78 312.667 588.26 310.867 588.26C309.147 588.26 307.687 588.76 306.487 589.76C305.327 590.76 304.607 592.18 304.327 594.02H317.167ZM344.054 592.88C344.054 588.72 344.954 585.02 346.754 581.78C348.554 578.5 351.054 575.96 354.254 574.16C357.494 572.32 361.154 571.4 365.234 571.4C370.234 571.4 374.514 572.72 378.074 575.36C381.634 578 384.014 581.6 385.214 586.16H373.934C373.094 584.4 371.894 583.06 370.334 582.14C368.814 581.22 367.074 580.76 365.114 580.76C361.954 580.76 359.394 581.86 357.434 584.06C355.474 586.26 354.494 589.2 354.494 592.88C354.494 596.56 355.474 599.5 357.434 601.7C359.394 603.9 361.954 605 365.114 605C367.074 605 368.814 604.54 370.334 603.62C371.894 602.7 373.094 601.36 373.934 599.6H385.214C384.014 604.16 381.634 607.76 378.074 610.4C374.514 613 370.234 614.3 365.234 614.3C361.154 614.3 357.494 613.4 354.254 611.6C351.054 609.76 348.554 607.22 346.754 603.98C344.954 600.74 344.054 597.04 344.054 592.88ZM406.737 614.48C403.457 614.48 400.497 613.78 397.857 612.38C395.257 610.98 393.197 608.98 391.677 606.38C390.197 603.78 389.457 600.74 389.457 597.26C389.457 593.82 390.217 590.8 391.737 588.2C393.257 585.56 395.337 583.54 397.977 582.14C400.617 580.74 403.577 580.04 406.857 580.04C410.137 580.04 413.097 580.74 415.737 582.14C418.377 583.54 420.457 585.56 421.977 588.2C423.497 590.8 424.257 593.82 424.257 597.26C424.257 600.7 423.477 603.74 421.917 606.38C420.397 608.98 418.297 610.98 415.617 612.38C412.977 613.78 410.017 614.48 406.737 614.48ZM406.737 605.6C408.697 605.6 410.357 604.88 411.717 603.44C413.117 602 413.817 599.94 413.817 597.26C413.817 594.58 413.137 592.52 411.777 591.08C410.457 589.64 408.817 588.92 406.857 588.92C404.857 588.92 403.197 589.64 401.877 591.08C400.557 592.48 399.897 594.54 399.897 597.26C399.897 599.94 400.537 602 401.817 603.44C403.137 604.88 404.777 605.6 406.737 605.6ZM439.96 569.6V614H429.7V569.6H439.96ZM457.656 569.6V614H447.396V569.6H457.656ZM496.651 596.72C496.651 597.68 496.591 598.68 496.471 599.72H473.251C473.411 601.8 474.071 603.4 475.231 604.52C476.431 605.6 477.891 606.14 479.611 606.14C482.171 606.14 483.951 605.06 484.951 602.9H495.871C495.311 605.1 494.291 607.08 492.811 608.84C491.371 610.6 489.551 611.98 487.351 612.98C485.151 613.98 482.691 614.48 479.971 614.48C476.691 614.48 473.771 613.78 471.211 612.38C468.651 610.98 466.651 608.98 465.211 606.38C463.771 603.78 463.051 600.74 463.051 597.26C463.051 593.78 463.751 590.74 465.151 588.14C466.591 585.54 468.591 583.54 471.151 582.14C473.711 580.74 476.651 580.04 479.971 580.04C483.211 580.04 486.091 580.72 488.611 582.08C491.131 583.44 493.091 585.38 494.491 587.9C495.931 590.42 496.651 593.36 496.651 596.72ZM486.151 594.02C486.151 592.26 485.551 590.86 484.351 589.82C483.151 588.78 481.651 588.26 479.851 588.26C478.131 588.26 476.671 588.76 475.471 589.76C474.311 590.76 473.591 592.18 473.311 594.02H486.151ZM514.784 580.04C517.144 580.04 519.204 580.52 520.964 581.48C522.764 582.44 524.144 583.7 525.104 585.26V580.52H535.364V613.94C535.364 617.02 534.744 619.8 533.504 622.28C532.304 624.8 530.444 626.8 527.924 628.28C525.444 629.76 522.344 630.5 518.624 630.5C513.664 630.5 509.644 629.32 506.564 626.96C503.484 624.64 501.724 621.48 501.284 617.48H511.424C511.744 618.76 512.504 619.76 513.704 620.48C514.904 621.24 516.384 621.62 518.144 621.62C520.264 621.62 521.944 621 523.184 619.76C524.464 618.56 525.104 616.62 525.104 613.94V609.2C524.104 610.76 522.724 612.04 520.964 613.04C519.204 614 517.144 614.48 514.784 614.48C512.024 614.48 509.524 613.78 507.284 612.38C505.044 610.94 503.264 608.92 501.944 606.32C500.664 603.68 500.024 600.64 500.024 597.2C500.024 593.76 500.664 590.74 501.944 588.14C503.264 585.54 505.044 583.54 507.284 582.14C509.524 580.74 512.024 580.04 514.784 580.04ZM525.104 597.26C525.104 594.7 524.384 592.68 522.944 591.2C521.544 589.72 519.824 588.98 517.784 588.98C515.744 588.98 514.004 589.72 512.564 591.2C511.164 592.64 510.464 594.64 510.464 597.2C510.464 599.76 511.164 601.8 512.564 603.32C514.004 604.8 515.744 605.54 517.784 605.54C519.824 605.54 521.544 604.8 522.944 603.32C524.384 601.84 525.104 599.82 525.104 597.26ZM574.346 596.72C574.346 597.68 574.286 598.68 574.166 599.72H550.946C551.106 601.8 551.766 603.4 552.926 604.52C554.126 605.6 555.586 606.14 557.306 606.14C559.866 606.14 561.646 605.06 562.646 602.9H573.566C573.006 605.1 571.986 607.08 570.506 608.84C569.066 610.6 567.246 611.98 565.046 612.98C562.846 613.98 560.386 614.48 557.666 614.48C554.386 614.48 551.466 613.78 548.906 612.38C546.346 610.98 544.346 608.98 542.906 606.38C541.466 603.78 540.746 600.74 540.746 597.26C540.746 593.78 541.446 590.74 542.846 588.14C544.286 585.54 546.286 583.54 548.846 582.14C551.406 580.74 554.346 580.04 557.666 580.04C560.906 580.04 563.786 580.72 566.306 582.08C568.826 583.44 570.786 585.38 572.186 587.9C573.626 590.42 574.346 593.36 574.346 596.72ZM563.846 594.02C563.846 592.26 563.246 590.86 562.046 589.82C560.846 588.78 559.346 588.26 557.546 588.26C555.826 588.26 554.366 588.76 553.166 589.76C552.006 590.76 551.286 592.18 551.006 594.02H563.846Z" fill="#28442B"/>
<rect width="486" height="59" transform="translate(166 646)" fill="#009F00"/>
<path d="M186.244 685.182C184.528 685.182 182.951 684.783 181.512 683.986C180.091 683.189 178.955 682.079 178.106 680.658C177.274 679.219 176.858 677.607 176.858 675.822C176.858 674.037 177.274 672.433 178.106 671.012C178.955 669.591 180.091 668.481 181.512 667.684C182.951 666.887 184.528 666.488 186.244 666.488C187.96 666.488 189.529 666.887 190.95 667.684C192.389 668.481 193.515 669.591 194.33 671.012C195.162 672.433 195.578 674.037 195.578 675.822C195.578 677.607 195.162 679.219 194.33 680.658C193.498 682.079 192.371 683.189 190.95 683.986C189.529 684.783 187.96 685.182 186.244 685.182ZM186.244 681.126C187.7 681.126 188.861 680.641 189.728 679.67C190.612 678.699 191.054 677.417 191.054 675.822C191.054 674.21 190.612 672.927 189.728 671.974C188.861 671.003 187.7 670.518 186.244 670.518C184.771 670.518 183.592 670.995 182.708 671.948C181.841 672.901 181.408 674.193 181.408 675.822C181.408 677.434 181.841 678.725 182.708 679.696C183.592 680.649 184.771 681.126 186.244 681.126ZM211.961 672.624C211.961 673.681 211.719 674.652 211.233 675.536C210.748 676.403 210.003 677.105 208.997 677.642C207.992 678.179 206.744 678.448 205.253 678.448H202.497V685H198.051V666.748H205.253C206.709 666.748 207.94 666.999 208.945 667.502C209.951 668.005 210.705 668.698 211.207 669.582C211.71 670.466 211.961 671.48 211.961 672.624ZM204.915 674.912C205.765 674.912 206.397 674.713 206.813 674.314C207.229 673.915 207.437 673.352 207.437 672.624C207.437 671.896 207.229 671.333 206.813 670.934C206.397 670.535 205.765 670.336 204.915 670.336H202.497V674.912H204.915ZM227.406 666.748V670.31H222.57V685H218.124V670.31H213.288V666.748H227.406ZM234.083 666.748V685H229.637V666.748H234.083ZM257.975 666.748V685H253.529V674.054L249.447 685H245.859L241.751 674.028V685H237.305V666.748H242.557L247.679 679.384L252.749 666.748H257.975ZM265.619 666.748V685H261.173V666.748H265.619ZM273.573 681.36H281.425V685H268.529V681.62L276.329 670.388H268.529V666.748H281.425V670.128L273.573 681.36ZM288.775 670.31V674.002H294.729V677.434H288.775V681.438H295.509V685H284.329V666.748H295.509V670.31H288.775ZM308.351 670.31V674.002H314.305V677.434H308.351V681.438H315.085V685H303.905V666.748H315.085V670.31H308.351ZM329.151 685L325.433 679.41L322.157 685H317.113L322.963 675.718L316.983 666.748H322.157L325.823 672.26L329.047 666.748H334.091L328.293 675.952L334.325 685H329.151ZM347.919 681.776H341.107L340.015 685H335.361L341.965 666.748H347.113L353.717 685H349.011L347.919 681.776ZM346.775 678.344L344.513 671.662L342.277 678.344H346.775ZM376.397 666.748V685H371.951V674.054L367.869 685H364.281L360.173 674.028V685H355.727V666.748H360.979L366.101 679.384L371.171 666.748H376.397ZM391.708 685.182C390.374 685.182 389.178 684.965 388.12 684.532C387.063 684.099 386.214 683.457 385.572 682.608C384.948 681.759 384.619 680.736 384.584 679.54H389.316C389.386 680.216 389.62 680.736 390.018 681.1C390.417 681.447 390.937 681.62 391.578 681.62C392.237 681.62 392.757 681.473 393.138 681.178C393.52 680.866 393.71 680.441 393.71 679.904C393.71 679.453 393.554 679.081 393.242 678.786C392.948 678.491 392.575 678.249 392.124 678.058C391.691 677.867 391.067 677.651 390.252 677.408C389.074 677.044 388.112 676.68 387.366 676.316C386.621 675.952 385.98 675.415 385.442 674.704C384.905 673.993 384.636 673.066 384.636 671.922C384.636 670.223 385.252 668.897 386.482 667.944C387.713 666.973 389.316 666.488 391.292 666.488C393.303 666.488 394.924 666.973 396.154 667.944C397.385 668.897 398.044 670.232 398.13 671.948H393.32C393.286 671.359 393.069 670.899 392.67 670.57C392.272 670.223 391.76 670.05 391.136 670.05C390.599 670.05 390.166 670.197 389.836 670.492C389.507 670.769 389.342 671.177 389.342 671.714C389.342 672.303 389.62 672.763 390.174 673.092C390.729 673.421 391.596 673.777 392.774 674.158C393.953 674.557 394.906 674.938 395.634 675.302C396.38 675.666 397.021 676.195 397.558 676.888C398.096 677.581 398.364 678.474 398.364 679.566C398.364 680.606 398.096 681.551 397.558 682.4C397.038 683.249 396.276 683.925 395.27 684.428C394.265 684.931 393.078 685.182 391.708 685.182ZM400.346 675.848C400.346 674.045 400.736 672.442 401.516 671.038C402.296 669.617 403.38 668.516 404.766 667.736C406.17 666.939 407.756 666.54 409.524 666.54C411.691 666.54 413.546 667.112 415.088 668.256C416.631 669.4 417.662 670.96 418.182 672.936H413.294C412.93 672.173 412.41 671.593 411.734 671.194C411.076 670.795 410.322 670.596 409.472 670.596C408.103 670.596 406.994 671.073 406.144 672.026C405.295 672.979 404.87 674.253 404.87 675.848C404.87 677.443 405.295 678.717 406.144 679.67C406.994 680.623 408.103 681.1 409.472 681.1C410.322 681.1 411.076 680.901 411.734 680.502C412.41 680.103 412.93 679.523 413.294 678.76H418.182C417.662 680.736 416.631 682.296 415.088 683.44C413.546 684.567 411.691 685.13 409.524 685.13C407.756 685.13 406.17 684.74 404.766 683.96C403.38 683.163 402.296 682.062 401.516 680.658C400.736 679.254 400.346 677.651 400.346 675.848ZM436.713 666.748V685H432.267V677.486H425.351V685H420.905V666.748H425.351V673.898H432.267V666.748H436.713ZM444.369 670.31V674.002H450.323V677.434H444.369V681.438H451.103V685H439.923V666.748H451.103V670.31H444.369ZM460.827 666.748C462.751 666.748 464.432 667.129 465.871 667.892C467.31 668.655 468.419 669.729 469.199 671.116C469.996 672.485 470.395 674.071 470.395 675.874C470.395 677.659 469.996 679.245 469.199 680.632C468.419 682.019 467.301 683.093 465.845 683.856C464.406 684.619 462.734 685 460.827 685H453.989V666.748H460.827ZM460.541 681.152C462.222 681.152 463.531 680.693 464.467 679.774C465.403 678.855 465.871 677.555 465.871 675.874C465.871 674.193 465.403 672.884 464.467 671.948C463.531 671.012 462.222 670.544 460.541 670.544H458.435V681.152H460.541ZM477.248 666.748V677.668C477.248 678.76 477.516 679.601 478.054 680.19C478.591 680.779 479.38 681.074 480.42 681.074C481.46 681.074 482.257 680.779 482.812 680.19C483.366 679.601 483.644 678.76 483.644 677.668V666.748H488.09V677.642C488.09 679.271 487.743 680.649 487.05 681.776C486.356 682.903 485.42 683.752 484.242 684.324C483.08 684.896 481.78 685.182 480.342 685.182C478.903 685.182 477.612 684.905 476.468 684.35C475.341 683.778 474.448 682.929 473.79 681.802C473.131 680.658 472.802 679.271 472.802 677.642V666.748H477.248ZM495.658 681.568H501.482V685H491.212V666.748H495.658V681.568ZM508.048 670.31V674.002H514.002V677.434H508.048V681.438H514.782V685H503.602V666.748H514.782V670.31H508.048ZM526.977 685L523.181 678.11H522.115V685H517.669V666.748H525.131C526.569 666.748 527.791 666.999 528.797 667.502C529.819 668.005 530.582 668.698 531.085 669.582C531.587 670.449 531.839 671.419 531.839 672.494C531.839 673.707 531.492 674.791 530.799 675.744C530.123 676.697 529.117 677.373 527.783 677.772L531.995 685H526.977ZM522.115 674.964H524.871C525.685 674.964 526.292 674.765 526.691 674.366C527.107 673.967 527.315 673.404 527.315 672.676C527.315 671.983 527.107 671.437 526.691 671.038C526.292 670.639 525.685 670.44 524.871 670.44H522.115V674.964ZM546.743 685.182C545.409 685.182 544.213 684.965 543.155 684.532C542.098 684.099 541.249 683.457 540.607 682.608C539.983 681.759 539.654 680.736 539.619 679.54H544.351C544.421 680.216 544.655 680.736 545.053 681.1C545.452 681.447 545.972 681.62 546.613 681.62C547.272 681.62 547.792 681.473 548.173 681.178C548.555 680.866 548.745 680.441 548.745 679.904C548.745 679.453 548.589 679.081 548.277 678.786C547.983 678.491 547.61 678.249 547.159 678.058C546.726 677.867 546.102 677.651 545.287 677.408C544.109 677.044 543.147 676.68 542.401 676.316C541.656 675.952 541.015 675.415 540.477 674.704C539.94 673.993 539.671 673.066 539.671 671.922C539.671 670.223 540.287 668.897 541.517 667.944C542.748 666.973 544.351 666.488 546.327 666.488C548.338 666.488 549.959 666.973 551.189 667.944C552.42 668.897 553.079 670.232 553.165 671.948H548.355C548.321 671.359 548.104 670.899 547.705 670.57C547.307 670.223 546.795 670.05 546.171 670.05C545.634 670.05 545.201 670.197 544.871 670.492C544.542 670.769 544.377 671.177 544.377 671.714C544.377 672.303 544.655 672.763 545.209 673.092C545.764 673.421 546.631 673.777 547.809 674.158C548.988 674.557 549.941 674.938 550.669 675.302C551.415 675.666 552.056 676.195 552.593 676.888C553.131 677.581 553.399 678.474 553.399 679.566C553.399 680.606 553.131 681.551 552.593 682.4C552.073 683.249 551.311 683.925 550.305 684.428C549.3 684.931 548.113 685.182 546.743 685.182ZM571.787 666.748L565.469 678.968V685H561.023V678.968L554.705 666.748H559.749L563.285 674.392L566.795 666.748H571.787ZM580.183 685.182C578.848 685.182 577.652 684.965 576.595 684.532C575.537 684.099 574.688 683.457 574.047 682.608C573.423 681.759 573.093 680.736 573.059 679.54H577.791C577.86 680.216 578.094 680.736 578.493 681.1C578.891 681.447 579.411 681.62 580.053 681.62C580.711 681.62 581.231 681.473 581.613 681.178C581.994 680.866 582.185 680.441 582.185 679.904C582.185 679.453 582.029 679.081 581.717 678.786C581.422 678.491 581.049 678.249 580.599 678.058C580.165 677.867 579.541 677.651 578.727 677.408C577.548 677.044 576.586 676.68 575.841 676.316C575.095 675.952 574.454 675.415 573.917 674.704C573.379 673.993 573.111 673.066 573.111 671.922C573.111 670.223 573.726 668.897 574.957 667.944C576.187 666.973 577.791 666.488 579.767 666.488C581.777 666.488 583.398 666.973 584.629 667.944C585.859 668.897 586.518 670.232 586.605 671.948H581.795C581.76 671.359 581.543 670.899 581.145 670.57C580.746 670.223 580.235 670.05 579.611 670.05C579.073 670.05 578.64 670.197 578.311 670.492C577.981 670.769 577.817 671.177 577.817 671.714C577.817 672.303 578.094 672.763 578.649 673.092C579.203 673.421 580.07 673.777 581.249 674.158C582.427 674.557 583.381 674.938 584.109 675.302C584.854 675.666 585.495 676.195 586.033 676.888C586.57 677.581 586.839 678.474 586.839 679.566C586.839 680.606 586.57 681.551 586.033 682.4C585.513 683.249 584.75 683.925 583.745 684.428C582.739 684.931 581.552 685.182 580.183 685.182ZM602.705 666.748V670.31H597.869V685H593.423V670.31H588.587V666.748H602.705ZM609.382 670.31V674.002H615.336V677.434H609.382V681.438H616.116V685H604.936V666.748H616.116V670.31H609.382ZM639.673 666.748V685H635.227V674.054L631.145 685H627.557L623.449 674.028V685H619.003V666.748H624.255L629.377 679.384L634.447 666.748H639.673Z" fill="white"/>
<defs>
<filter id="filter0_d_22_224" x="133.421" y="108.523" width="177.928" height="184.004" filterUnits="userSpaceOnUse" color-interpolation-filters="sRGB">
<feFlood flood-opacity="0" result="BackgroundImageFix"/>
<feColorMatrix in="SourceAlpha" type="matrix" values="0 0 0 0 0 0 0 0 0 0 0 0 0 0 0 0 0 0 127 0" result="hardAlpha"/>
<feOffset dx="5" dy="10"/>
<feGaussianBlur stdDeviation="2"/>
<feComposite in2="hardAlpha" operator="out"/>
<feColorMatrix type="matrix" values="0 0 0 0 0 0 0 0 0 0 0 0 0 0 0 0 0 0 0.5 0"/>
<feBlend mode="normal" in2="BackgroundImageFix" result="effect1_dropShadow_22_224"/>
<feBlend mode="normal" in="SourceGraphic" in2="effect1_dropShadow_22_224" result="shape"/>
</filter>
</defs>
</svg>
