<svg width="523" height="523" viewBox="0 0 523 523" fill="none" xmlns="http://www.w3.org/2000/svg">
<g clip-path="url(#clip0_133_7)">
<path d="M161.52 307.362C174.453 320.433 192.267 328.528 211.91 328.528C231.551 328.528 249.367 320.436 262.301 307.367C262.353 307.323 262.414 307.307 262.461 307.261C262.51 307.211 262.528 307.146 262.572 307.091C275.441 293.95 283.407 275.851 283.407 255.896C283.407 235.943 275.441 217.844 262.572 204.703C262.528 204.648 262.51 204.58 262.461 204.533C262.414 204.487 262.353 204.471 262.301 204.427C249.367 191.358 231.551 183.266 211.91 183.266C192.267 183.266 174.453 191.361 161.52 204.432C161.471 204.474 161.409 204.489 161.362 204.536C161.313 204.586 161.295 204.651 161.251 204.705C148.385 217.844 140.417 235.943 140.417 255.898C140.417 275.854 148.382 293.953 161.251 307.094C161.295 307.146 161.313 307.211 161.362 307.261C161.409 307.305 161.471 307.32 161.52 307.362ZM144.9 258.127H156.487C157.71 258.127 158.7 257.13 158.7 255.896C158.7 254.659 157.71 253.662 156.487 253.662H144.9C145.447 236.557 152.213 221.031 162.982 209.345L171.154 217.646C171.585 218.084 172.155 218.305 172.722 218.305C173.287 218.305 173.85 218.089 174.283 217.656C175.15 216.787 175.155 215.376 174.291 214.498L166.101 206.176C177.598 195.228 192.871 188.346 209.7 187.786V199.573C209.7 200.81 210.69 201.807 211.913 201.807C213.136 201.807 214.126 200.81 214.126 199.573V187.786C230.955 188.346 246.226 195.225 257.722 206.174L249.535 214.498C248.673 215.376 248.679 216.787 249.545 217.656C249.976 218.089 250.541 218.305 251.106 218.305C251.673 218.305 252.243 218.084 252.677 217.646L260.844 209.345C271.613 221.031 278.382 236.557 278.928 253.662H267.341C266.116 253.662 265.128 254.659 265.128 255.896C265.128 257.13 266.116 258.127 267.341 258.127H278.928C278.382 275.234 271.616 290.758 260.844 302.444L252.677 294.143C251.81 293.268 250.412 293.263 249.545 294.132C248.679 295.002 248.673 296.413 249.535 297.291L257.722 305.615C246.226 316.564 230.955 323.443 214.126 324.003V312.216C214.126 310.979 213.136 309.981 211.913 309.981C210.69 309.981 209.7 310.979 209.7 312.216V324.003C192.871 323.443 177.598 316.564 166.101 305.612L174.291 297.291C175.155 296.413 175.15 295.002 174.283 294.135C173.416 293.263 172.016 293.27 171.154 294.143L162.982 302.444C152.213 290.76 145.444 275.234 144.9 258.127Z" fill="#155124"/>
<path d="M206.661 250.144C205.131 251.581 204.156 253.62 204.156 255.896C204.156 260.228 207.633 263.759 211.91 263.759C214.173 263.759 216.192 262.754 217.611 261.181L258.197 277.676C258.465 277.786 258.744 277.838 259.022 277.838C259.897 277.838 260.727 277.309 261.076 276.437C261.53 275.294 260.983 273.992 259.848 273.531L219.54 257.151C219.605 256.739 219.664 256.325 219.664 255.896C219.664 251.56 216.187 248.032 211.91 248.032C211.469 248.032 211.046 248.092 210.626 248.162L197.3 218.37C196.797 217.248 195.487 216.737 194.375 217.253C193.258 217.761 192.763 219.083 193.268 220.206L206.661 250.144ZM215.24 255.896C215.24 257.768 213.747 259.291 211.91 259.291C210.074 259.291 208.58 257.765 208.58 255.896C208.58 254.024 210.074 252.498 211.91 252.498C213.747 252.498 215.24 254.021 215.24 255.896Z" fill="#155124"/>
<mask id="mask0_133_7" style="mask-type:luminance" maskUnits="userSpaceOnUse" x="123" y="166" width="280" height="264">
<path d="M123.771 166.367H402.868V429.644H123.771V166.367Z" fill="white"/>
</mask>
<g mask="url(#mask0_133_7)">
<path d="M383.139 242.398H361V231.621C361 226.694 357.03 222.687 352.149 222.687H348.798C343.918 222.687 339.948 226.694 339.948 231.621V242.398H299.029C292.604 199.414 255.988 166.367 211.912 166.367C163.324 166.367 123.793 206.528 123.793 255.896C123.793 285.469 137.991 311.731 159.819 328.044V410.173C159.819 421.049 168.535 429.901 179.248 429.901H383.139C393.852 429.901 402.566 421.049 402.566 410.173V262.127C402.568 251.248 393.855 242.398 383.139 242.398ZM344.372 231.621C344.372 229.157 346.358 227.153 348.798 227.153H352.149C354.589 227.153 356.576 229.157 356.576 231.621V257.64C356.576 260.103 354.589 262.108 352.149 262.108H348.798C346.358 262.108 344.372 260.103 344.372 257.64V231.621ZM339.948 246.866V257.64C339.948 262.567 343.918 266.574 348.798 266.574H352.149C357.03 266.574 361 262.567 361 257.64V246.866H383.139C391.412 246.866 398.144 253.711 398.144 262.127V279.004H297.041C298.983 271.628 300.036 263.887 300.036 255.896C300.036 252.847 299.881 249.837 299.587 246.866H339.948ZM128.217 255.896C128.217 208.991 165.764 170.833 211.912 170.833C258.062 170.833 295.606 208.991 295.606 255.896C295.606 302.798 258.062 340.956 211.912 340.956C165.764 340.956 128.217 302.798 128.217 255.896ZM320.55 300.366V324.058H297.263V300.366H320.55ZM348.259 300.366V324.058H324.977V300.366H348.259ZM375.971 300.366V324.058H352.686V300.366H375.971ZM324.977 408.537V384.845H348.259V408.537H324.977ZM297.263 408.537V384.845H320.55V408.537H297.263ZM292.276 408.537H269.551V384.845H292.836V408.537H292.276ZM241.839 408.537V384.845H265.127V408.537H241.839ZM214.125 408.537V384.845H237.41V408.537H214.125ZM186.413 408.537V384.845H209.699V408.537H186.413ZM209.699 345.364V352.217H186.413V341.584C193.814 343.865 201.625 345.161 209.699 345.364ZM237.413 341.586V352.22H214.125V345.367C222.201 345.161 230.01 343.865 237.413 341.586ZM263.339 328.526H265.124V352.217H241.837V340.097C249.565 337.256 256.785 333.332 263.339 328.526ZM320.55 328.526V352.217H297.263V328.526H320.55ZM303.363 380.377H297.263V356.688H320.55V380.377H303.363ZM241.839 380.377V356.688H265.127V380.377H241.839ZM186.413 356.688H209.699V380.377H186.413V356.688ZM214.125 356.688H237.41V380.377H214.125V356.688ZM269.551 356.688H292.836V380.377H269.551V356.688ZM324.977 356.688H348.259V380.377H324.977V356.688ZM352.686 356.688H375.971V380.377H352.686V356.688ZM375.971 352.22H352.686V328.526H375.971V352.22ZM348.259 352.22H324.977V328.526H348.259V352.22ZM292.836 352.22H269.551V328.526H292.836V352.22ZM352.686 384.845H375.971V408.537H352.686V384.845ZM292.836 324.058H269.551V323.526C277.019 316.949 283.385 309.125 288.34 300.366H292.836V324.058ZM383.139 425.433H179.248C170.975 425.433 164.243 418.588 164.243 410.173V331.132C169.77 334.759 175.708 337.787 181.987 340.097V410.769C181.987 412.006 182.978 413.003 184.2 413.003H378.187C379.409 413.003 380.4 412.006 380.4 410.769V298.134C380.4 296.897 379.409 295.9 378.187 295.9H290.711C292.679 291.916 294.363 287.766 295.738 283.472H398.144V410.173C398.144 418.588 391.415 425.433 383.139 425.433Z" fill="#155124"/>
</g>
<mask id="mask1_133_7" style="mask-type:luminance" maskUnits="userSpaceOnUse" x="61" y="104" width="262" height="279">
<path d="M61.4656 104.754H322.305V382.046H61.4656V104.754Z" fill="white"/>
</mask>
<g mask="url(#mask1_133_7)">
<mask id="mask2_133_7" style="mask-type:luminance" maskUnits="userSpaceOnUse" x="2" y="45" width="344" height="358">
<path d="M192.148 45.2574L345.624 175.532L156.391 402.679L2.91589 272.404L192.148 45.2574Z" fill="white"/>
</mask>
<g mask="url(#mask2_133_7)">
<mask id="mask3_133_7" style="mask-type:luminance" maskUnits="userSpaceOnUse" x="2" y="45" width="344" height="358">
<path d="M192.148 45.2574L345.624 175.532L156.391 402.679L2.91589 272.404L192.148 45.2574Z" fill="white"/>
</mask>
<g mask="url(#mask3_133_7)">
<path d="M290.149 128.49L319.055 153.028C322.357 155.83 322.79 160.795 320.033 164.138C320.015 164.159 320.002 164.177 319.989 164.196L304.906 185.096C304.581 185.552 304.579 186.159 304.899 186.614C309.761 193.548 313.8 200.914 317.004 208.582C317.009 208.588 317.009 208.593 317.009 208.595C317.314 209.332 316.883 210.165 316.117 210.34L287.306 216.87C286.731 217 286.138 216.719 285.875 216.185C284.397 213.175 282.728 210.241 280.883 207.395C278.518 203.757 275.853 200.268 272.895 196.969C271.12 194.993 269.242 193.085 267.256 191.252C266.374 190.434 265.468 189.632 264.54 188.843C262.765 187.335 260.941 185.914 259.081 184.575C238.809 170.007 213.974 165.651 191.057 170.947C173.733 174.949 157.508 184.466 145.189 199.256C115.075 235.399 119.695 289.336 155.501 319.73C164.69 327.528 175.031 333.017 185.847 336.259C186.412 336.431 186.786 336.97 186.757 337.563L186.623 340.357L185.328 367.314C185.29 368.116 184.541 368.692 183.765 368.517C183.672 368.496 183.579 368.475 183.484 368.455C183.357 368.426 183.234 368.395 183.11 368.363C179.099 367.403 175.121 366.223 171.203 364.82C167.499 363.494 163.841 361.971 160.248 360.245C159.75 360.008 159.154 360.115 158.767 360.513L140.956 379.099C140.94 379.115 140.925 379.13 140.909 379.151C138.121 382.466 133.199 382.887 129.897 380.086L100.989 355.548C97.6869 352.746 97.2536 347.775 100.014 344.437C100.032 344.419 100.042 344.398 100.057 344.383L115.137 323.477C115.462 323.026 115.467 322.417 115.145 321.961C108.967 313.145 104.11 303.62 100.61 293.684C100.424 293.158 99.9285 292.812 99.3765 292.817L73.7517 293.244C73.7285 293.247 73.7078 293.244 73.682 293.25C69.3872 293.604 65.6133 290.388 65.2419 286.05L63.2583 262.902L61.9917 248.066C61.6177 243.731 64.7931 239.903 69.0854 239.513C69.106 239.51 69.1292 239.51 69.1524 239.505L94.4703 235.485C95.0146 235.401 95.4427 234.969 95.5382 234.417C97.2974 224.023 100.46 213.8 105.049 204.044C105.289 203.541 105.186 202.94 104.786 202.552L86.3732 184.57C86.3603 184.555 86.3423 184.539 86.3242 184.526C83.0379 181.709 82.62 176.741 85.3956 173.408L109.705 144.227C112.483 140.894 117.405 140.457 120.717 143.246C120.732 143.259 120.75 143.274 120.768 143.285L141.477 158.509C141.923 158.84 142.526 158.84 142.978 158.517C151.715 152.278 161.148 147.38 170.994 143.844C171.512 143.66 171.858 143.16 171.85 142.602L171.781 138.238L171.427 116.734C171.43 116.713 171.427 116.69 171.427 116.666C171.071 112.333 174.26 108.519 178.557 108.144L193.252 106.863L216.187 104.863C220.484 104.488 224.271 107.688 224.661 112.021C224.661 112.047 224.666 112.068 224.668 112.091L228.648 137.647C228.736 138.197 229.159 138.629 229.703 138.725C238.6 140.262 247.37 142.85 255.824 146.519C257.157 147.094 258.48 147.698 259.796 148.328C260.296 148.57 260.892 148.461 261.274 148.06L263.915 145.308L266.121 143.009L272.722 136.122L279.091 129.479C279.104 129.461 279.122 129.445 279.137 129.427C281.926 126.107 286.847 125.688 290.149 128.49Z" fill="#155124"/>
</g>
</g>
</g>
<path d="M332.537 208.118H364.796C373.619 208.118 382.081 211.126 388.32 216.48C394.557 221.836 398.061 229.099 398.061 236.673V245.206C398.061 252.78 394.557 260.044 388.32 265.399C382.081 270.755 373.619 273.763 364.796 273.763H332.537C323.714 273.763 315.252 270.755 309.013 265.399C302.777 260.044 299.272 252.78 299.272 245.206V236.673C299.272 229.099 302.777 221.836 309.013 216.48C315.252 211.126 323.714 208.118 332.537 208.118Z" fill="white"/>
<path d="M320.597 255.566V220.196H344.204V226.362H328.005V234.788H342.987V240.953H328.005V249.4H344.277V255.566H320.597Z" fill="#155124"/>
<path d="M369.108 230.372C368.969 228.976 368.378 227.893 367.333 227.122C366.294 226.351 364.89 225.966 363.123 225.966C361.307 225.966 359.915 226.341 358.945 227.091C357.975 227.841 357.49 228.786 357.49 229.924C357.469 231.189 358.008 232.147 359.11 232.798C360.209 233.452 361.519 233.954 363.041 234.308L366.188 235.069C368.215 235.527 370.018 236.194 371.595 237.069C373.176 237.943 374.422 239.073 375.33 240.453C376.238 241.828 376.692 243.5 376.692 245.463C376.676 248.7 375.474 251.275 373.08 253.191C370.692 255.108 367.364 256.066 363.092 256.066C358.834 256.066 355.439 255.087 352.909 253.129C350.376 251.171 349.065 248.283 348.977 244.463H356.138C356.267 246.234 356.964 247.567 358.222 248.463C359.481 249.353 361.073 249.796 363 249.796C364.883 249.796 366.387 249.395 367.509 248.588C368.628 247.783 369.196 246.734 369.211 245.442C369.196 244.25 368.677 243.328 367.653 242.682C366.626 242.037 365.161 241.485 363.258 241.026L359.44 240.058C356.489 239.344 354.157 238.212 352.444 236.662C350.737 235.108 349.888 233.027 349.896 230.424C349.888 228.286 350.455 226.414 351.598 224.81C352.746 223.201 354.322 221.951 356.324 221.06C358.331 220.165 360.616 219.717 363.175 219.717C365.775 219.717 368.045 220.17 369.985 221.071C371.93 221.967 373.444 223.216 374.525 224.82C375.611 226.419 376.171 228.268 376.207 230.372H369.108Z" fill="#155124"/>
<mask id="mask4_133_7" style="mask-type:luminance" maskUnits="userSpaceOnUse" x="376" y="184" width="71" height="75">
<path d="M376.454 184.32H446.013V258.731H376.454V184.32Z" fill="white"/>
</mask>
<g mask="url(#mask4_133_7)">
<path d="M445.807 213.399C445.701 212.287 445.598 211.532 445.402 210.387C445.242 209.475 445.046 208.572 444.806 207.674C443.872 204.211 442.338 201.042 440.207 198.172C435.912 192.369 429.672 188.215 422.754 186.06C421 185.521 419.212 185.133 417.391 184.898C415.544 184.654 413.69 184.508 411.827 184.375C411.427 184.346 411.092 184.745 411.097 185.114C411.097 185.26 411.138 185.393 411.221 185.513C406.596 185.458 402.169 186.388 397.947 188.299C391.998 191.002 386.963 195.589 383.525 201.073C381.368 204.536 379.888 208.272 379.08 212.285C377.971 215.214 377.262 218.24 376.955 221.362C376.648 224.486 376.756 227.593 377.275 230.688C378.386 237.286 381.595 243.476 386.254 248.316C391.072 253.326 397.495 256.757 404.432 257.77C411.732 258.835 419.254 257.414 425.452 253.393C426.381 252.795 427.273 252.144 428.135 251.448C430.431 250.019 432.535 248.345 434.452 246.423C436.369 244.504 438.045 242.39 439.482 240.08C443.434 233.774 445.51 226.429 445.908 219.047C446.013 217.162 445.98 215.279 445.807 213.399ZM388.722 198.534C389.749 197.357 390.853 196.259 392.032 195.241C392.298 195.011 392.566 194.787 392.839 194.566L393.087 194.368L393.105 194.355L393.149 194.321C393.317 194.194 393.482 194.066 393.649 193.941C394.268 193.483 394.903 193.048 395.553 192.634C396.861 191.811 398.218 191.085 399.626 190.455L399.66 190.439L399.691 190.426L399.982 190.299C400.145 190.233 400.307 190.174 400.472 190.106C400.846 189.955 401.225 189.817 401.607 189.687C402.376 189.421 403.155 189.189 403.944 188.989C404.731 188.791 405.525 188.627 406.328 188.494C406.397 188.484 406.756 188.432 406.738 188.432C406.882 188.411 407.029 188.393 407.174 188.374C407.615 188.32 408.056 188.278 408.497 188.249C410.119 188.124 411.742 188.13 413.365 188.268C413.566 188.286 413.767 188.304 413.971 188.325L414.247 188.356C413.898 188.317 414.27 188.356 414.327 188.367C414.726 188.419 415.129 188.478 415.529 188.549C416.346 188.687 417.156 188.861 417.961 189.067C418.763 189.275 419.555 189.515 420.337 189.788C420.683 189.916 421.026 190.041 421.369 190.168L421.405 190.184L421.451 190.202C421.554 190.246 421.655 190.288 421.758 190.33C421.944 190.408 422.132 190.491 422.315 190.575C421.369 190.345 420.412 190.168 419.452 190.036C416.109 189.562 412.761 189.543 409.413 189.976C407.762 190.192 406.137 190.528 404.537 190.981C402.956 191.426 401.383 191.915 399.853 192.501C398.819 192.897 397.805 193.337 396.812 193.824C395.597 194.34 394.413 194.92 393.26 195.566C392.535 195.967 391.833 196.407 391.152 196.883C390.433 197.389 389.736 197.92 389.055 198.472C388.741 198.724 388.428 198.985 388.121 199.253C388.315 199.011 388.516 198.771 388.722 198.534ZM404.522 255.099C402.75 254.807 401.016 254.359 399.319 253.758C399.133 253.69 398.945 253.623 398.759 253.55L398.481 253.443L398.339 253.386C397.921 253.219 397.511 253.039 397.103 252.847C396.384 252.508 395.679 252.146 394.988 251.758C394.297 251.37 393.631 250.956 392.989 250.521C392.664 250.305 392.342 250.081 392.027 249.85L391.957 249.8C391.998 249.829 391.82 249.696 391.787 249.673C391.619 249.545 391.452 249.42 391.289 249.279C390.059 248.311 388.908 247.254 387.833 246.113C387.273 245.522 386.736 244.908 386.223 244.275V244.283L386.215 244.272C386.197 244.252 386.164 244.21 386.148 244.189L386.024 244.038C385.916 243.897 385.808 243.757 385.699 243.614C385.444 243.275 385.194 242.931 384.949 242.577C384.056 241.294 383.259 239.953 382.56 238.552C382.385 238.203 382.217 237.851 382.06 237.495C382.029 237.432 382 237.37 381.972 237.302C382.103 237.594 381.956 237.266 381.938 237.221C381.853 237.026 381.771 236.831 381.688 236.633C381.386 235.896 381.113 235.149 380.868 234.391C380.401 232.93 380.04 231.441 379.785 229.926C381.005 234.271 382.937 238.263 385.581 241.9C389.79 247.66 395.581 252.141 402.425 254.417C403.351 254.724 404.287 254.99 405.239 255.208C404.999 255.177 404.759 255.141 404.522 255.099ZM439.064 220.862C439.054 221.692 439.02 222.52 438.966 223.351C438.935 223.807 438.899 224.262 438.855 224.715C438.835 224.921 438.814 225.129 438.791 225.335C438.778 225.463 438.762 225.582 438.749 225.707C438.749 225.736 438.747 225.762 438.742 225.78C438.742 225.793 438.742 225.817 438.731 225.848C438.491 227.704 438.141 229.538 437.674 231.35C437.444 232.23 437.186 233.105 436.897 233.972C436.761 234.386 436.616 234.797 436.467 235.206C436.387 235.419 436.307 235.633 436.222 235.839C436.191 235.917 436.162 235.992 436.131 236.07C436.118 236.102 436.018 236.346 436.005 236.393C435.321 238.034 434.519 239.614 433.603 241.135C433.188 241.827 432.744 242.504 432.275 243.168C432.148 243.348 432.017 243.528 431.885 243.707L431.754 243.884L431.638 244.046C431.395 244.361 431.148 244.671 430.895 244.975C429.845 246.246 428.707 247.428 427.48 248.524C427.191 248.777 426.899 249.027 426.605 249.277C425.934 249.686 425.246 250.068 424.547 250.428C424.186 250.613 423.819 250.792 423.448 250.961L423.035 251.146L422.857 251.224L422.447 251.394C420.93 252.006 419.375 252.482 417.778 252.823C417.376 252.909 416.971 252.985 416.563 253.055L416.269 253.102L416.215 253.11L416.156 253.117C415.918 253.149 415.683 253.18 415.446 253.203C414.579 253.3 413.708 253.357 412.833 253.37C411.959 253.386 411.084 253.36 410.215 253.297C409.81 253.268 409.405 253.229 409 253.183L408.799 253.156L408.561 253.125C408.306 253.089 408.051 253.05 407.795 253.008C406.046 252.714 404.331 252.276 402.657 251.688C402.28 251.56 401.906 251.415 401.532 251.271L401.47 251.251L401.414 251.224C401.303 251.18 401.192 251.133 401.083 251.086C400.862 250.995 400.642 250.899 400.426 250.8C399.629 250.441 398.847 250.048 398.084 249.623C397.346 249.212 396.629 248.772 395.93 248.303C395.594 248.079 395.262 247.847 394.929 247.608L394.71 247.449L394.671 247.42C394.495 247.285 394.32 247.152 394.147 247.014C392.847 245.988 391.627 244.871 390.489 243.663C389.935 243.069 389.401 242.463 388.888 241.838L388.79 241.721C388.906 241.861 388.712 241.622 388.686 241.593C388.573 241.45 388.459 241.304 388.348 241.158C388.078 240.807 387.817 240.453 387.562 240.091C386.628 238.765 385.787 237.38 385.036 235.938C384.848 235.581 384.665 235.219 384.49 234.854C384.407 234.69 384.327 234.524 384.255 234.357C384.208 234.258 384.162 234.157 384.115 234.058C384.108 234.039 384.061 233.93 384.038 233.883C383.708 233.123 383.398 232.342 383.117 231.558C382.511 229.855 382.031 228.118 381.683 226.343C381.603 225.944 381.531 225.546 381.466 225.145C381.453 225.062 381.441 224.978 381.428 224.892C381.428 224.861 381.394 224.676 381.392 224.653C381.358 224.413 381.327 224.171 381.299 223.932C381.193 223.044 381.118 222.158 381.077 221.271C380.994 219.487 381.041 217.709 381.224 215.935C381.234 215.808 381.247 215.693 381.263 215.573L381.288 215.355C381.309 215.185 381.332 215.016 381.358 214.85C381.425 214.389 381.5 213.93 381.585 213.475C381.704 212.834 381.84 212.199 381.998 211.566C382.083 211.366 382.171 211.165 382.263 210.965C382.939 209.475 383.721 208.043 384.6 206.669C384.822 206.325 385.052 205.989 385.287 205.656C385.39 205.507 385.493 205.361 385.599 205.216L385.784 204.947L385.895 204.802C386.367 204.182 386.881 203.601 387.384 203.005L387.557 202.781C387.5 202.867 387.513 202.859 387.593 202.758C387.67 202.685 387.737 202.596 387.809 202.518C387.936 202.385 388.052 202.252 388.176 202.122C388.459 201.82 388.748 201.526 389.045 201.237C389.62 200.669 390.216 200.123 390.833 199.597C392.011 198.602 393.242 197.675 394.521 196.816C397.178 195.022 400.031 193.634 403.075 192.655C404.419 192.223 405.783 191.871 407.169 191.608C407.501 191.559 407.834 191.512 408.167 191.468C408.897 191.366 409.629 191.288 410.362 191.228C410.989 191.194 411.608 191.181 412.224 191.179C412.284 191.181 412.333 191.158 412.371 191.108C414.182 191.048 415.99 191.108 417.796 191.288C421.111 191.624 424.441 192.447 427.358 194.074C428.271 194.587 429.133 195.178 429.94 195.85L429.966 195.873C430.518 196.428 431.047 197.006 431.553 197.607C431.653 197.732 431.754 197.847 431.852 197.969C431.87 197.993 432.061 198.232 432.092 198.271C432.347 198.605 432.595 198.938 432.835 199.279C433.719 200.531 434.506 201.844 435.2 203.213C435.373 203.557 435.541 203.903 435.7 204.252C435.765 204.39 435.824 204.528 435.891 204.669C435.904 204.697 435.917 204.731 435.927 204.75C435.976 204.861 436.023 204.973 436.072 205.088C436.371 205.801 436.647 206.523 436.903 207.252C437.416 208.739 437.839 210.251 438.169 211.79C438.337 212.571 438.476 213.355 438.605 214.144C438.605 214.154 438.605 214.17 438.61 214.183L438.644 214.423C438.667 214.597 438.693 214.774 438.713 214.949C438.767 215.37 438.814 215.795 438.855 216.217C439.007 217.761 439.077 219.31 439.064 220.862ZM443.374 219.51C443.336 219.969 443.289 220.422 443.238 220.875C443.238 220.888 443.209 221.12 443.209 221.13C443.202 221.182 443.194 221.237 443.189 221.289C443.155 221.534 443.122 221.781 443.086 222.026C442.949 222.94 442.786 223.848 442.595 224.752C442.229 226.46 441.78 228.147 441.249 229.811C440.981 230.642 440.689 231.464 440.372 232.279C440.302 232.464 440.23 232.649 440.155 232.834C440.145 232.857 440.068 233.045 440.065 233.053C440.034 233.131 440 233.206 439.97 233.282C439.926 233.381 439.882 233.482 439.838 233.581C440.594 231.037 441.123 228.444 441.43 225.804C441.842 222.419 441.868 219.034 441.507 215.644C440.803 209.16 438.708 202.693 434.785 197.389C432.791 194.67 430.405 192.369 427.627 190.486C429.092 191.238 430.495 192.098 431.839 193.056L432.063 193.22L432.125 193.267L432.187 193.311C432.334 193.423 432.481 193.535 432.628 193.65C432.979 193.923 433.325 194.204 433.663 194.493C434.284 195.019 434.885 195.569 435.463 196.139C436.041 196.709 436.596 197.305 437.124 197.922C437.246 198.063 437.364 198.204 437.483 198.344L437.651 198.555L437.785 198.722C438.035 199.039 438.28 199.365 438.515 199.693C440.529 202.458 441.922 205.512 442.696 208.856C442.792 209.257 442.879 209.66 442.962 210.064C443.008 210.306 443.052 210.548 443.096 210.793L443.137 211.035C443.15 211.116 443.163 211.199 443.176 211.28C443.176 211.316 443.186 211.345 443.189 211.366C443.315 212.251 443.4 213.149 443.454 214.048C443.555 215.873 443.527 217.696 443.374 219.516V219.51Z" fill="#F42F2F"/>
</g>
<path d="M410.778 206.114L410.736 206.072C410.757 206.13 410.788 206.178 410.836 206.217C410.817 206.188 410.799 206.156 410.786 206.128L410.778 206.114Z" fill="#F42F2F"/>
<path d="M421.965 219.034C421.854 218.292 421.34 217.792 420.639 217.55C419.622 217.201 418.315 217.625 417.27 217.805L415.849 218.042L415.248 208.47C415.111 206.278 414.739 203.859 412.658 202.62C411.502 201.937 409.972 201.88 408.739 202.378C407.455 202.898 406.49 203.75 405.747 204.903C405.105 205.895 404.721 207.043 404.318 208.142C403.903 209.288 403.498 210.439 403.106 211.598C402.34 213.878 401.633 216.18 400.988 218.508C400.792 219.211 400.604 219.917 400.418 220.625L398.352 220.971C396.458 221.289 394.565 221.619 392.672 221.948C392.517 221.955 392.365 221.981 392.215 222.026H392.184C391.821 222.135 391.514 222.336 391.263 222.627C391.016 222.919 390.864 223.255 390.809 223.635C390.765 223.932 390.794 224.223 390.892 224.507C390.99 224.788 391.147 225.033 391.364 225.239C391.906 225.759 392.551 225.825 393.257 225.707C395.311 225.377 397.364 225.041 399.417 224.705C399.286 225.278 399.162 225.851 399.041 226.423C398.754 227.77 398.486 229.121 398.241 230.478C398.115 231.157 398.019 231.837 397.921 232.522C397.82 233.305 397.787 234.092 397.823 234.881C397.828 235.084 397.872 235.279 397.947 235.466C398.024 235.651 398.13 235.821 398.267 235.969C398.401 236.117 398.558 236.237 398.739 236.328C398.917 236.417 399.105 236.474 399.304 236.495C400.165 236.599 400.864 236.076 401.135 235.279C401.316 234.75 401.535 234.224 401.648 233.678C401.765 233.094 401.875 232.514 401.986 231.93C402.206 230.79 402.409 229.655 402.642 228.522C402.954 227.015 403.289 225.512 403.65 224.015L412.162 222.606C412.162 222.697 412.173 222.789 412.178 222.88L413.125 238.023C413.05 238.351 413.05 238.679 413.125 239.008L413.264 239.632C413.478 240.585 414.546 241.145 415.464 241.012C416.383 240.88 417.223 240.041 417.162 239.06C416.806 233.357 416.447 227.658 416.091 221.958L417.786 221.672L419.357 221.411C419.981 221.307 420.605 221.242 421.116 220.841C421.712 220.377 422.083 219.82 421.965 219.034ZM409.134 219.159L404.713 219.901C405.742 216.149 406.934 212.444 408.285 208.78C408.371 208.551 408.456 208.319 408.549 208.09C408.549 208.088 408.549 208.085 408.549 208.082C408.543 208.093 408.538 208.103 408.533 208.114L408.554 208.072C408.567 208.038 408.59 207.989 408.603 207.957L408.665 207.819C408.765 207.601 408.874 207.385 408.992 207.176C409.057 207.062 409.124 206.947 409.196 206.835C409.235 206.775 409.377 206.609 409.39 206.588C409.49 206.481 409.591 206.372 409.699 206.27L409.753 206.218C409.831 206.171 409.929 206.13 409.975 206.104L410.04 206.067L410.104 206.038C410.174 206.018 410.251 206.002 410.267 205.997C410.279 205.992 410.354 205.979 410.414 205.968H410.426L410.491 205.958H410.512L410.54 205.963H410.61C410.607 205.968 410.602 205.973 410.597 205.976L410.651 205.992H410.669L410.674 205.997L410.7 206.028C410.71 206.041 410.723 206.051 410.736 206.064C410.731 206.057 410.728 206.049 410.726 206.038L410.746 206.051C410.754 206.064 410.764 206.083 410.775 206.104C410.811 206.137 410.844 206.171 410.873 206.208C410.86 206.218 410.847 206.218 410.834 206.208C410.86 206.255 410.886 206.299 410.911 206.335L410.919 206.346C411.043 206.736 411.113 207.127 411.213 207.52C411.074 206.981 411.213 207.585 411.226 207.747C411.247 207.999 411.262 208.254 411.28 208.507C411.492 211.9 411.703 215.292 411.915 218.685L409.134 219.159Z" fill="#F42F2F"/>
<path d="M410.432 205.968C410.478 205.992 410.555 206.01 410.597 205.981L410.542 205.965L410.432 205.968Z" fill="#F42F2F"/>
<path d="M408.548 208.084C408.632 207.902 408.63 207.905 408.604 207.955C408.58 208.005 408.569 208.034 408.554 208.073C408.554 208.076 408.551 208.081 408.548 208.084Z" fill="#F42F2F"/>
<path d="M432.025 206.236C431.553 205.531 430.797 205.288 429.974 205.442C428.746 205.671 427.516 205.9 426.288 206.132C426.277 206.007 426.27 205.88 426.262 205.752C426.231 205.247 426.198 204.742 426.164 204.239C426.12 203.56 426.151 202.846 425.759 202.247C425.109 201.258 423.435 201.117 422.854 202.286C422.535 202.932 422.568 203.51 422.604 204.197C422.633 204.703 422.661 205.208 422.689 205.71L422.749 206.806C421.467 207.049 420.187 207.296 418.905 207.546C417.997 207.723 417.417 208.869 417.701 209.707C418.033 210.678 418.913 211.069 419.888 210.897C420.91 210.717 421.928 210.535 422.947 210.35C423.03 211.738 423.115 213.128 423.198 214.516C423.241 215.277 423.752 216.053 424.547 216.222C425.261 216.373 426.265 216.115 426.574 215.376C426.613 215.282 426.652 215.191 426.69 215.1C426.884 214.639 427.002 214.222 426.853 213.72C426.827 213.628 426.791 213.537 426.747 213.451C426.672 212.202 426.597 210.949 426.517 209.699L429.84 209.08C429.976 209.111 430.113 209.129 430.255 209.126C430.859 209.121 431.351 208.791 431.772 208.4C432.329 207.882 432.45 206.869 432.025 206.236Z" fill="#F42F2F"/>
</g>
<defs>
<clipPath id="clip0_133_7">
<rect width="523" height="523" fill="white"/>
</clipPath>
</defs>
</svg>
