<svg width="524" height="409" viewBox="0 0 524 409" fill="none" xmlns="http://www.w3.org/2000/svg">
<rect x="167.852" y="190.297" width="238.867" height="175.384" rx="20" fill="#269126"/>
<rect x="188.296" y="236.564" width="196.903" height="111.901" rx="1" fill="white"/>
<g filter="url(#filter0_d_20_125)">
<ellipse cx="217.885" cy="193.525" rx="84.4641" ry="85.0021" fill="#F1F1F1"/>
</g>
<path d="M167.068 245.07C180.026 258.166 197.874 266.276 217.555 266.276C237.233 266.276 255.083 258.168 268.042 245.075C268.093 245.031 268.155 245.015 268.202 244.968C268.251 244.918 268.269 244.853 268.313 244.798C281.207 231.632 289.187 213.498 289.187 193.505C289.187 173.514 281.207 155.38 268.313 142.214C268.269 142.159 268.251 142.091 268.202 142.044C268.155 141.997 268.093 141.982 268.042 141.937C255.083 128.844 237.233 120.736 217.555 120.736C197.874 120.736 180.026 128.847 167.068 141.943C167.018 141.984 166.956 142 166.91 142.047C166.861 142.097 166.843 142.162 166.799 142.217C153.908 155.38 145.924 173.514 145.924 193.508C145.924 213.501 153.905 231.635 166.799 244.801C166.843 244.853 166.861 244.918 166.91 244.968C166.956 245.012 167.018 245.028 167.068 245.07ZM150.416 195.741H162.025C163.25 195.741 164.243 194.741 164.243 193.505C164.243 192.266 163.25 191.267 162.025 191.267H150.416C150.964 174.13 157.743 158.574 168.533 146.865L176.72 155.182C177.152 155.62 177.723 155.842 178.292 155.842C178.858 155.842 179.421 155.626 179.855 155.193C180.724 154.321 180.729 152.907 179.863 152.028L171.658 143.691C183.176 132.721 198.479 125.826 215.34 125.265V137.075C215.34 138.314 216.332 139.313 217.557 139.313C218.782 139.313 219.775 138.314 219.775 137.075V125.265C236.636 125.826 251.935 132.718 263.454 143.688L255.251 152.028C254.388 152.907 254.393 154.321 255.262 155.193C255.693 155.626 256.259 155.842 256.825 155.842C257.394 155.842 257.965 155.62 258.399 155.182L266.581 146.865C277.371 158.574 284.153 174.13 284.701 191.267H273.092C271.864 191.267 270.874 192.266 270.874 193.505C270.874 194.741 271.864 195.741 273.092 195.741H284.701C284.153 212.88 277.374 228.434 266.581 240.142L258.399 231.825C257.531 230.948 256.13 230.943 255.262 231.815C254.393 232.686 254.388 234.1 255.251 234.979L263.454 243.319C251.935 254.289 236.636 261.181 219.775 261.742V249.932C219.775 248.693 218.782 247.694 217.557 247.694C216.332 247.694 215.34 248.693 215.34 249.932V261.742C198.479 261.181 183.176 254.289 171.658 243.317L179.863 234.979C180.729 234.1 180.724 232.686 179.855 231.817C178.987 230.943 177.584 230.951 176.72 231.825L168.533 240.142C157.743 228.436 150.961 212.88 150.416 195.741Z" fill="#269126"/>
<path d="M212.297 187.742C210.764 189.182 209.787 191.225 209.787 193.505C209.787 197.846 213.271 201.383 217.556 201.383C219.823 201.383 221.846 200.376 223.268 198.801L263.931 215.327C264.2 215.437 264.479 215.489 264.758 215.489C265.634 215.489 266.466 214.959 266.815 214.085C267.27 212.94 266.722 211.636 265.585 211.174L225.201 194.762C225.265 194.35 225.325 193.935 225.325 193.505C225.325 189.161 221.841 185.626 217.556 185.626C217.114 185.626 216.69 185.686 216.269 185.757L202.918 155.907C202.414 154.783 201.101 154.272 199.987 154.788C198.868 155.297 198.372 156.622 198.878 157.747L212.297 187.742ZM220.892 193.505C220.892 195.381 219.396 196.907 217.556 196.907C215.716 196.907 214.219 195.378 214.219 193.505C214.219 191.629 215.716 190.1 217.556 190.1C219.396 190.1 220.892 191.627 220.892 193.505Z" fill="#269126"/>
<mask id="mask0_20_125" style="mask-type:luminance" maskUnits="userSpaceOnUse" x="129" y="103" width="280" height="265">
<path d="M129.248 103.805H408.879V367.585H129.248V103.805Z" fill="white"/>
</mask>
<g mask="url(#mask0_20_125)">
<path d="M389.113 179.981H366.93V169.184C366.93 164.248 362.953 160.233 358.063 160.233H354.706C349.816 160.233 345.839 164.248 345.839 169.184V179.981H304.842C298.404 136.916 261.718 103.805 217.558 103.805C168.877 103.805 129.271 144.043 129.271 193.505C129.271 223.135 143.495 249.447 165.365 265.791V348.077C165.365 358.974 174.098 367.843 184.831 367.843H389.113C399.846 367.843 408.576 358.974 408.576 348.077V199.748C408.579 188.848 399.848 179.981 389.113 179.981ZM350.271 169.184C350.271 166.716 352.261 164.707 354.706 164.707H358.063C360.508 164.707 362.498 166.716 362.498 169.184V195.253C362.498 197.721 360.508 199.73 358.063 199.73H354.706C352.261 199.73 350.271 197.721 350.271 195.253V169.184ZM345.839 184.458V195.253C345.839 200.189 349.816 204.204 354.706 204.204H358.063C362.953 204.204 366.93 200.189 366.93 195.253V184.458H389.113C397.401 184.458 404.146 191.316 404.146 199.748V216.658H302.849C304.795 209.267 305.85 201.511 305.85 193.505C305.85 190.45 305.695 187.435 305.4 184.458H345.839ZM133.703 193.505C133.703 146.511 171.322 108.279 217.558 108.279C263.796 108.279 301.412 146.511 301.412 193.505C301.412 240.497 263.796 278.728 217.558 278.728C171.322 278.728 133.703 240.497 133.703 193.505ZM326.404 238.06V261.797H303.071V238.06H326.404ZM354.166 238.06V261.797H330.839V238.06H354.166ZM381.93 238.06V261.797H358.601V238.06H381.93ZM330.839 346.439V322.701H354.166V346.439H330.839ZM303.071 346.439V322.701H326.404V346.439H303.071ZM298.076 346.439H275.307V322.701H298.637V346.439H298.076ZM247.542 346.439V322.701H270.874V346.439H247.542ZM219.775 346.439V322.701H243.105V346.439H219.775ZM192.01 346.439V322.701H215.34V346.439H192.01ZM215.34 283.145V290.011H192.01V279.357C199.425 281.642 207.251 282.941 215.34 283.145ZM243.107 279.359V290.014H219.775V283.147C227.867 282.941 235.69 281.642 243.107 279.359ZM269.083 266.274H270.872V290.011H247.54V277.867C255.283 275.021 262.516 271.09 269.083 266.274ZM326.404 266.274V290.011H303.071V266.274H326.404ZM309.184 318.225H303.071V294.49H326.404V318.225H309.184ZM247.542 318.225V294.49H270.874V318.225H247.542ZM192.01 294.49H215.34V318.225H192.01V294.49ZM219.775 294.49H243.105V318.225H219.775V294.49ZM275.307 294.49H298.637V318.225H275.307V294.49ZM330.839 294.49H354.166V318.225H330.839V294.49ZM358.601 294.49H381.93V318.225H358.601V294.49ZM381.93 290.014H358.601V266.274H381.93V290.014ZM354.166 290.014H330.839V266.274H354.166V290.014ZM298.637 290.014H275.307V266.274H298.637V290.014ZM358.601 322.701H381.93V346.439H358.601V322.701ZM298.637 261.797H275.307V261.265C282.789 254.675 289.167 246.836 294.132 238.06H298.637V261.797ZM389.113 363.367H184.831C176.542 363.367 169.797 356.508 169.797 348.077V268.885C175.336 272.519 181.285 275.553 187.575 277.867V348.674C187.575 349.913 188.568 350.913 189.793 350.913H384.15C385.375 350.913 386.368 349.913 386.368 348.674V235.824C386.368 234.585 385.375 233.586 384.15 233.586H296.507C298.479 229.595 300.167 225.436 301.544 221.135H404.146V348.077C404.146 356.508 397.403 363.367 389.113 363.367Z" fill="#269126"/>
</g>
<mask id="mask1_20_125" style="mask-type:luminance" maskUnits="userSpaceOnUse" x="66" y="42" width="263" height="278">
<path d="M66.8228 42.0742H328.161V319.897H66.8228V42.0742Z" fill="white"/>
</mask>
<g mask="url(#mask1_20_125)">
<mask id="mask2_20_125" style="mask-type:luminance" maskUnits="userSpaceOnUse" x="8" y="-18" width="344" height="359">
<path d="M197.756 -17.5359L351.525 112.988L161.931 340.569L8.16162 210.045L197.756 -17.5359Z" fill="white"/>
</mask>
<g mask="url(#mask2_20_125)">
<mask id="mask3_20_125" style="mask-type:luminance" maskUnits="userSpaceOnUse" x="8" y="-18" width="344" height="359">
<path d="M197.756 -17.5359L351.525 112.988L161.931 340.569L8.16162 210.045L197.756 -17.5359Z" fill="white"/>
</mask>
<g mask="url(#mask3_20_125)">
<path d="M295.945 65.8559L324.906 90.4409C328.215 93.2479 328.649 98.2228 325.886 101.572C325.868 101.593 325.855 101.612 325.842 101.63L310.731 122.57C310.405 123.027 310.403 123.635 310.723 124.091C315.595 131.038 319.642 138.419 322.852 146.101C322.857 146.107 322.857 146.112 322.857 146.114C323.162 146.853 322.73 147.688 321.963 147.862L293.097 154.405C292.521 154.536 291.926 154.254 291.663 153.719C290.182 150.703 288.51 147.763 286.662 144.912C284.292 141.267 281.622 137.772 278.658 134.466C276.88 132.486 274.998 130.574 273.008 128.737C272.125 127.918 271.217 127.115 270.287 126.324C268.509 124.814 266.682 123.39 264.818 122.049C244.507 107.453 219.624 103.088 196.664 108.394C179.307 112.404 163.051 121.939 150.708 136.757C120.537 172.969 125.166 227.01 161.04 257.462C170.246 265.275 180.607 270.774 191.444 274.022C192.01 274.194 192.384 274.734 192.356 275.329L192.221 278.128L190.924 305.137C190.885 305.94 190.136 306.517 189.358 306.342C189.265 306.321 189.172 306.3 189.076 306.279C188.95 306.251 188.826 306.219 188.701 306.188C184.683 305.225 180.697 304.044 176.772 302.638C173.06 301.31 169.396 299.784 165.796 298.054C165.297 297.817 164.7 297.924 164.312 298.323L146.467 316.944C146.451 316.96 146.436 316.975 146.42 316.996C143.626 320.317 138.695 320.74 135.387 317.933L106.423 293.348C103.115 290.541 102.681 285.561 105.446 282.216C105.464 282.198 105.475 282.177 105.49 282.161L120.599 261.216C120.925 260.764 120.93 260.154 120.607 259.697C114.417 250.864 109.55 241.321 106.043 231.366C105.857 230.839 105.361 230.492 104.808 230.497L79.1342 230.925C79.111 230.928 79.0903 230.925 79.0644 230.931C74.7613 231.285 70.9803 228.064 70.6082 223.717L68.6207 200.525L67.3518 185.661C66.977 181.317 70.1585 177.482 74.459 177.091C74.4796 177.088 74.5029 177.088 74.5262 177.083L99.8924 173.055C100.438 172.972 100.867 172.539 100.962 171.986C102.725 161.571 105.893 151.329 110.491 141.554C110.732 141.051 110.628 140.448 110.228 140.06L91.7799 122.043C91.7669 122.028 91.7489 122.012 91.7308 121.999C88.4382 119.176 88.0195 114.199 90.8004 110.86L115.156 81.6232C117.94 78.284 122.871 77.8457 126.189 80.6397C126.205 80.6528 126.223 80.6684 126.241 80.6789L146.989 95.9323C147.436 96.2636 148.04 96.2636 148.493 95.9401C157.246 89.6895 166.698 84.7824 176.562 81.2397C177.082 81.0545 177.428 80.5536 177.42 79.9954L177.351 75.6231L176.997 54.0773C176.999 54.0564 176.997 54.033 176.997 54.0095C176.64 49.6685 179.834 45.8467 184.14 45.471L198.863 44.1875L221.842 42.184C226.147 41.8083 229.941 45.0145 230.332 49.3555C230.332 49.3815 230.337 49.4024 230.339 49.4259L234.327 75.0309C234.415 75.5813 234.839 76.0144 235.384 76.1109C244.298 77.6501 253.085 80.2432 261.554 83.9189C262.89 84.4955 264.216 85.1007 265.534 85.732C266.036 85.9747 266.633 85.8651 267.015 85.4633L269.662 82.7059L271.871 80.4023L278.485 73.5022L284.866 66.8472C284.879 66.8289 284.897 66.8133 284.912 66.795C287.706 63.4689 292.637 63.0488 295.945 65.8559Z" fill="#269126"/>
</g>
</g>
</g>
<path d="M338.412 145.636H370.733C379.573 145.636 394.549 144.584 400.8 149.948C407.049 155.314 408.87 164.417 408.87 172.005V182.795C408.87 190.383 411.353 210.754 405.104 216.12C398.853 221.486 379.573 217.196 370.733 217.196H338.932C330.092 217.196 309.676 222.562 303.425 217.196C297.176 211.83 305.084 190.383 305.084 182.795L303.425 174.245C303.425 166.657 291.797 155.852 298.045 150.486C304.296 145.122 329.573 145.636 338.412 145.636Z" fill="#269126"/>
<path d="M326.451 193.175V157.737H350.104V163.915H333.874V172.357H348.884V178.534H333.874V186.997H350.176V193.175H326.451Z" fill="#269126"/>
<path d="M375.054 167.932C374.914 166.534 374.322 165.448 373.276 164.676C372.234 163.904 370.828 163.518 369.058 163.518C367.238 163.518 365.843 163.894 364.871 164.645C363.899 165.396 363.413 166.343 363.413 167.483C363.393 168.751 363.933 169.711 365.036 170.363C366.137 171.018 367.45 171.522 368.975 171.876L372.128 172.638C374.16 173.097 375.966 173.765 377.545 174.642C379.129 175.518 380.378 176.65 381.287 178.033C382.197 179.411 382.652 181.085 382.652 183.052C382.636 186.295 381.432 188.875 379.034 190.795C376.641 192.715 373.307 193.675 369.027 193.675C364.76 193.675 361.359 192.694 358.823 190.733C356.286 188.771 354.973 185.878 354.885 182.051H362.059C362.188 183.825 362.886 185.16 364.147 186.058C365.409 186.95 367.003 187.393 368.934 187.393C370.82 187.393 372.327 186.992 373.451 186.183C374.573 185.377 375.142 184.325 375.157 183.032C375.142 181.837 374.622 180.913 373.596 180.266C372.567 179.619 371.1 179.066 369.192 178.607L365.367 177.637C362.411 176.922 360.074 175.787 358.358 174.235C356.647 172.677 355.797 170.593 355.805 167.984C355.797 165.842 356.366 163.967 357.511 162.36C358.661 160.747 360.24 159.495 362.245 158.603C364.256 157.706 366.546 157.257 369.11 157.257C371.715 157.257 373.989 157.711 375.932 158.614C377.881 159.511 379.398 160.763 380.481 162.37C381.569 163.972 382.13 165.824 382.166 167.932H375.054Z" fill="#269126"/>
<mask id="mask4_20_125" style="mask-type:luminance" maskUnits="userSpaceOnUse" x="382" y="121" width="71" height="76">
<path d="M382.415 121.793H452.107V196.346H382.415V121.793Z" fill="white"/>
</mask>
<g mask="url(#mask4_20_125)">
<path d="M451.9 150.928C451.794 149.814 451.69 149.057 451.494 147.909C451.334 146.996 451.137 146.091 450.897 145.191C449.961 141.721 448.424 138.546 446.289 135.671C441.986 129.857 435.734 125.696 428.803 123.536C427.045 122.996 425.254 122.607 423.43 122.372C421.579 122.127 419.721 121.981 417.855 121.848C417.454 121.819 417.118 122.218 417.123 122.589C417.123 122.735 417.165 122.868 417.248 122.988C412.614 122.933 408.179 123.864 403.948 125.779C397.988 128.487 392.943 133.084 389.498 138.578C387.338 142.047 385.854 145.791 385.045 149.811C383.934 152.746 383.223 155.777 382.916 158.905C382.608 162.036 382.717 165.148 383.236 168.25C384.35 174.86 387.565 181.061 392.233 185.911C397.06 190.93 403.496 194.369 410.445 195.383C417.759 196.45 425.295 195.026 431.506 190.998C432.436 190.398 433.331 189.746 434.194 189.049C436.494 187.617 438.603 185.94 440.523 184.014C442.443 182.092 444.123 179.973 445.563 177.66C449.522 171.341 451.602 163.982 452 156.586C452.106 154.697 452.073 152.811 451.9 150.928ZM394.706 136.034C395.735 134.855 396.841 133.754 398.022 132.734C398.288 132.504 398.557 132.28 398.831 132.058L399.079 131.86L399.097 131.847L399.141 131.813C399.309 131.685 399.474 131.557 399.642 131.432C400.263 130.973 400.898 130.537 401.55 130.123C402.86 129.298 404.219 128.57 405.63 127.939L405.664 127.923L405.695 127.91L405.987 127.783C406.15 127.717 406.313 127.657 406.478 127.59C406.853 127.438 407.233 127.3 407.615 127.17C408.386 126.903 409.166 126.671 409.957 126.47C410.745 126.272 411.541 126.108 412.345 125.975C412.415 125.964 412.774 125.912 412.756 125.912C412.901 125.891 413.048 125.873 413.193 125.855C413.635 125.8 414.076 125.758 414.518 125.729C416.144 125.604 417.77 125.609 419.395 125.748C419.597 125.766 419.798 125.784 420.003 125.805L420.279 125.836C419.93 125.797 420.302 125.836 420.359 125.847C420.76 125.899 421.163 125.959 421.564 126.029C422.383 126.168 423.194 126.343 424.001 126.549C424.804 126.757 425.598 126.997 426.381 127.271C426.727 127.399 427.071 127.524 427.415 127.652L427.451 127.668L427.497 127.686C427.601 127.73 427.702 127.772 427.805 127.814C427.991 127.892 428.18 127.976 428.363 128.059C427.415 127.83 426.456 127.652 425.494 127.519C422.145 127.044 418.79 127.026 415.436 127.459C413.782 127.676 412.154 128.012 410.551 128.466C408.967 128.912 407.39 129.403 405.858 129.99C404.822 130.386 403.806 130.827 402.811 131.315C401.594 131.831 400.407 132.413 399.252 133.06C398.526 133.462 397.823 133.903 397.141 134.38C396.42 134.886 395.722 135.418 395.039 135.971C394.724 136.225 394.411 136.485 394.104 136.754C394.298 136.512 394.499 136.271 394.706 136.034ZM410.536 192.707C408.76 192.415 407.024 191.966 405.323 191.363C405.137 191.296 404.948 191.228 404.762 191.155L404.483 191.048L404.341 190.99C403.922 190.823 403.511 190.643 403.103 190.45C402.382 190.111 401.676 189.749 400.984 189.36C400.291 188.971 399.624 188.556 398.981 188.121C398.655 187.904 398.332 187.68 398.017 187.448L397.947 187.398C397.988 187.427 397.81 187.294 397.776 187.27C397.608 187.142 397.44 187.017 397.278 186.876C396.045 185.906 394.892 184.847 393.814 183.704C393.254 183.112 392.716 182.496 392.202 181.862V181.87L392.194 181.86C392.176 181.839 392.142 181.797 392.127 181.776L392.003 181.625C391.894 181.484 391.786 181.343 391.677 181.2C391.421 180.86 391.171 180.516 390.925 180.161C390.031 178.875 389.232 177.532 388.532 176.128C388.356 175.779 388.188 175.426 388.03 175.069C387.999 175.006 387.971 174.944 387.943 174.876C388.074 175.168 387.927 174.839 387.909 174.795C387.824 174.599 387.741 174.404 387.658 174.206C387.356 173.467 387.082 172.719 386.836 171.959C386.369 170.496 386.007 169.004 385.751 167.485C386.973 171.839 388.909 175.839 391.558 179.483C395.776 185.254 401.578 189.743 408.435 192.023C409.362 192.331 410.301 192.597 411.254 192.816C411.014 192.785 410.774 192.749 410.536 192.707ZM445.144 158.404C445.134 159.236 445.1 160.066 445.046 160.898C445.015 161.355 444.979 161.811 444.935 162.265C444.914 162.471 444.893 162.68 444.87 162.886C444.857 163.014 444.842 163.134 444.829 163.259C444.829 163.288 444.826 163.314 444.821 163.332C444.821 163.345 444.821 163.369 444.811 163.4C444.57 165.26 444.219 167.097 443.751 168.912C443.521 169.794 443.263 170.671 442.973 171.539C442.836 171.954 442.691 172.366 442.541 172.776C442.461 172.99 442.381 173.204 442.296 173.41C442.265 173.488 442.236 173.564 442.205 173.642C442.193 173.673 442.092 173.919 442.079 173.966C441.394 175.609 440.59 177.193 439.673 178.716C439.257 179.41 438.812 180.088 438.342 180.754C438.215 180.934 438.083 181.114 437.951 181.294L437.82 181.471L437.703 181.633C437.46 181.948 437.212 182.259 436.959 182.564C435.907 183.837 434.767 185.021 433.537 186.12C433.248 186.373 432.956 186.623 432.661 186.874C431.989 187.283 431.299 187.667 430.599 188.027C430.237 188.212 429.87 188.392 429.498 188.562L429.084 188.747L428.906 188.825L428.495 188.995C426.975 189.608 425.417 190.085 423.817 190.427C423.414 190.513 423.008 190.589 422.6 190.659L422.305 190.706L422.251 190.714L422.192 190.722C421.954 190.753 421.719 190.784 421.481 190.808C420.612 190.904 419.739 190.962 418.863 190.975C417.987 190.99 417.111 190.964 416.24 190.902C415.834 190.873 415.428 190.834 415.022 190.787L414.821 190.761L414.583 190.729C414.327 190.693 414.071 190.654 413.815 190.612C412.063 190.317 410.345 189.879 408.667 189.289C408.29 189.162 407.915 189.015 407.54 188.872L407.478 188.851L407.422 188.825C407.31 188.781 407.199 188.734 407.091 188.687C406.868 188.595 406.649 188.499 406.432 188.4C405.633 188.04 404.85 187.646 404.085 187.221C403.346 186.808 402.627 186.368 401.927 185.898C401.591 185.674 401.258 185.441 400.924 185.201L400.705 185.042L400.666 185.014C400.49 184.878 400.314 184.745 400.141 184.607C398.839 183.579 397.616 182.46 396.476 181.249C395.921 180.654 395.386 180.047 394.871 179.42L394.773 179.303C394.89 179.444 394.696 179.204 394.67 179.175C394.556 179.032 394.442 178.886 394.331 178.74C394.06 178.387 393.799 178.033 393.543 177.67C392.608 176.342 391.765 174.954 391.013 173.509C390.824 173.152 390.641 172.789 390.465 172.424C390.382 172.259 390.302 172.092 390.23 171.925C390.183 171.826 390.137 171.725 390.09 171.625C390.083 171.607 390.036 171.498 390.013 171.451C389.682 170.689 389.372 169.906 389.09 169.121C388.483 167.415 388.002 165.675 387.653 163.896C387.573 163.497 387.501 163.097 387.436 162.696C387.423 162.612 387.41 162.529 387.397 162.443C387.397 162.411 387.364 162.226 387.361 162.203C387.328 161.963 387.296 161.72 387.268 161.48C387.162 160.59 387.087 159.703 387.046 158.814C386.963 157.027 387.01 155.245 387.193 153.468C387.203 153.341 387.216 153.226 387.232 153.106L387.258 152.887C387.278 152.717 387.302 152.548 387.328 152.381C387.395 151.919 387.47 151.46 387.555 151.003C387.674 150.361 387.811 149.725 387.968 149.091C388.054 148.89 388.142 148.689 388.235 148.488C388.912 146.996 389.695 145.561 390.576 144.184C390.798 143.84 391.028 143.503 391.264 143.169C391.367 143.02 391.47 142.874 391.576 142.728L391.762 142.459L391.874 142.313C392.346 141.693 392.861 141.111 393.365 140.513L393.538 140.289C393.481 140.375 393.494 140.367 393.574 140.266C393.652 140.192 393.719 140.104 393.791 140.026C393.918 139.892 394.034 139.759 394.158 139.629C394.442 139.326 394.732 139.032 395.029 138.742C395.605 138.173 396.202 137.625 396.82 137.098C398.001 136.102 399.234 135.173 400.516 134.312C403.178 132.515 406.036 131.124 409.086 130.144C410.432 129.71 411.8 129.358 413.187 129.095C413.521 129.045 413.854 128.998 414.188 128.954C414.919 128.852 415.653 128.774 416.387 128.714C417.015 128.68 417.635 128.667 418.253 128.664C418.312 128.667 418.361 128.643 418.4 128.594C420.214 128.534 422.026 128.594 423.835 128.774C427.156 129.11 430.493 129.935 433.416 131.565C434.331 132.079 435.194 132.671 436.003 133.344L436.029 133.368C436.582 133.924 437.112 134.503 437.618 135.105C437.719 135.231 437.82 135.345 437.918 135.468C437.936 135.491 438.127 135.731 438.158 135.771C438.414 136.105 438.662 136.438 438.903 136.78C439.789 138.035 440.577 139.35 441.272 140.722C441.446 141.066 441.614 141.413 441.774 141.763C441.838 141.901 441.898 142.039 441.965 142.18C441.978 142.209 441.991 142.243 442.001 142.261C442.05 142.373 442.097 142.486 442.146 142.6C442.446 143.315 442.722 144.038 442.978 144.768C443.493 146.258 443.916 147.774 444.247 149.315C444.415 150.098 444.555 150.883 444.684 151.674C444.684 151.684 444.684 151.7 444.689 151.713L444.723 151.953C444.746 152.128 444.772 152.305 444.792 152.48C444.847 152.902 444.893 153.328 444.935 153.75C445.087 155.297 445.157 156.849 445.144 158.404ZM449.463 157.05C449.424 157.509 449.377 157.963 449.326 158.417C449.326 158.43 449.297 158.663 449.297 158.673C449.289 158.725 449.282 158.78 449.276 158.832C449.243 159.077 449.209 159.325 449.173 159.57C449.036 160.486 448.873 161.396 448.682 162.302C448.315 164.013 447.865 165.704 447.333 167.371C447.064 168.203 446.772 169.027 446.454 169.844C446.385 170.029 446.312 170.214 446.237 170.399C446.227 170.423 446.149 170.611 446.147 170.618C446.116 170.697 446.082 170.772 446.051 170.848C446.007 170.947 445.963 171.049 445.919 171.148C446.677 168.599 447.206 166.001 447.514 163.356C447.927 159.964 447.953 156.573 447.591 153.176C446.886 146.68 444.787 140.2 440.856 134.886C438.859 132.163 436.468 129.857 433.685 127.97C435.153 128.724 436.558 129.585 437.905 130.545L438.13 130.71L438.192 130.757L438.254 130.801C438.401 130.913 438.548 131.025 438.696 131.14C439.047 131.414 439.394 131.696 439.732 131.985C440.355 132.512 440.957 133.063 441.536 133.634C442.115 134.205 442.671 134.803 443.2 135.421C443.322 135.562 443.441 135.703 443.56 135.844L443.728 136.055L443.862 136.222C444.113 136.54 444.358 136.866 444.593 137.195C446.612 139.966 448.008 143.026 448.783 146.375C448.878 146.777 448.966 147.181 449.049 147.586C449.096 147.828 449.14 148.071 449.183 148.316L449.225 148.559C449.238 148.64 449.251 148.723 449.264 148.804C449.264 148.841 449.274 148.869 449.276 148.89C449.403 149.777 449.488 150.677 449.543 151.577C449.643 153.406 449.615 155.232 449.463 157.056V157.05Z" fill="#F42F2F"/>
</g>
<path d="M416.804 143.628L416.762 143.586C416.783 143.644 416.814 143.692 416.862 143.731C416.843 143.702 416.825 143.671 416.812 143.642L416.804 143.628Z" fill="#F42F2F"/>
<path d="M428.011 156.573C427.9 155.829 427.386 155.328 426.683 155.086C425.665 154.736 424.354 155.161 423.308 155.341L421.884 155.579L421.281 145.989C421.144 143.792 420.772 141.369 418.687 140.127C417.529 139.443 415.996 139.386 414.761 139.884C413.474 140.406 412.507 141.259 411.763 142.415C411.119 143.409 410.734 144.559 410.331 145.66C409.915 146.808 409.509 147.961 409.116 149.122C408.349 151.407 407.641 153.713 406.995 156.046C406.798 156.75 406.61 157.457 406.423 158.167L404.353 158.513C402.456 158.832 400.559 159.163 398.662 159.492C398.507 159.5 398.355 159.526 398.205 159.57H398.174C397.81 159.68 397.502 159.88 397.251 160.173C397.003 160.465 396.851 160.801 396.796 161.182C396.753 161.48 396.781 161.772 396.879 162.056C396.977 162.338 397.135 162.583 397.352 162.789C397.895 163.311 398.541 163.376 399.249 163.259C401.306 162.928 403.364 162.591 405.421 162.254C405.289 162.828 405.165 163.402 405.043 163.976C404.757 165.325 404.488 166.679 404.242 168.038C404.116 168.719 404.02 169.4 403.922 170.086C403.821 170.871 403.787 171.659 403.824 172.449C403.829 172.653 403.873 172.849 403.948 173.036C404.025 173.222 404.131 173.391 404.268 173.54C404.402 173.689 404.56 173.809 404.741 173.9C404.919 173.989 405.108 174.046 405.307 174.067C406.17 174.171 406.871 173.647 407.142 172.849C407.323 172.319 407.543 171.792 407.656 171.244C407.773 170.66 407.884 170.078 407.995 169.494C408.214 168.351 408.419 167.214 408.651 166.079C408.964 164.568 409.3 163.063 409.662 161.563L418.19 160.152C418.19 160.243 418.201 160.334 418.206 160.426L419.154 175.598C419.079 175.927 419.079 176.256 419.154 176.584L419.294 177.21C419.508 178.165 420.578 178.726 421.499 178.593C422.419 178.46 423.261 177.62 423.199 176.637C422.842 170.923 422.483 165.213 422.127 159.502L423.825 159.215L425.398 158.954C426.024 158.85 426.649 158.785 427.161 158.383C427.758 157.919 428.13 157.36 428.011 156.573ZM415.156 156.698L410.727 157.441C411.758 153.682 412.952 149.97 414.306 146.299C414.391 146.07 414.477 145.838 414.57 145.608C414.57 145.605 414.57 145.603 414.57 145.6C414.564 145.611 414.559 145.621 414.554 145.631L414.575 145.59C414.588 145.556 414.611 145.506 414.624 145.475L414.686 145.337C414.787 145.117 414.895 144.901 415.014 144.692C415.079 144.577 415.146 144.463 415.218 144.351C415.257 144.291 415.399 144.124 415.412 144.103C415.513 143.996 415.614 143.886 415.722 143.784L415.777 143.732C415.854 143.685 415.952 143.644 415.999 143.617L416.063 143.581L416.128 143.552C416.198 143.531 416.275 143.516 416.291 143.51C416.304 143.505 416.379 143.492 416.438 143.482H416.451L416.516 143.471H416.536L416.565 143.477H416.635C416.632 143.482 416.627 143.487 416.622 143.49L416.676 143.505H416.694L416.699 143.51L416.725 143.542C416.735 143.555 416.748 143.565 416.761 143.578C416.756 143.57 416.753 143.563 416.751 143.552L416.772 143.565C416.779 143.578 416.79 143.597 416.8 143.617C416.836 143.651 416.87 143.685 416.898 143.722C416.885 143.732 416.872 143.732 416.859 143.722C416.885 143.769 416.911 143.813 416.937 143.85L416.945 143.86C417.069 144.251 417.139 144.643 417.239 145.037C417.1 144.497 417.239 145.102 417.252 145.264C417.273 145.517 417.288 145.772 417.307 146.025C417.518 149.425 417.73 152.824 417.942 156.223L415.156 156.698Z" fill="#F42F2F"/>
<path d="M416.457 143.482C416.504 143.506 416.581 143.524 416.622 143.495L416.568 143.479L416.457 143.482Z" fill="#F42F2F"/>
<path d="M414.569 145.602C414.653 145.42 414.65 145.422 414.624 145.473C414.6 145.523 414.59 145.552 414.574 145.591C414.574 145.594 414.571 145.599 414.569 145.602Z" fill="#F42F2F"/>
<path d="M438.091 143.751C437.619 143.044 436.861 142.801 436.037 142.955C434.807 143.185 433.574 143.414 432.344 143.646C432.333 143.521 432.326 143.393 432.318 143.266C432.287 142.759 432.253 142.253 432.22 141.75C432.176 141.069 432.207 140.354 431.814 139.754C431.163 138.763 429.485 138.622 428.904 139.793C428.583 140.44 428.617 141.019 428.653 141.708C428.682 142.214 428.71 142.72 428.738 143.224L428.798 144.322C427.513 144.565 426.231 144.813 424.947 145.063C424.037 145.24 423.456 146.388 423.74 147.228C424.073 148.201 424.955 148.593 425.932 148.42C426.955 148.24 427.976 148.058 428.997 147.873C429.08 149.263 429.165 150.656 429.248 152.047C429.291 152.808 429.803 153.586 430.599 153.755C431.315 153.907 432.32 153.648 432.631 152.908C432.669 152.814 432.708 152.722 432.747 152.631C432.941 152.169 433.06 151.752 432.91 151.248C432.884 151.157 432.848 151.066 432.804 150.98C432.729 149.727 432.654 148.473 432.574 147.22L435.902 146.6C436.039 146.631 436.176 146.649 436.319 146.647C436.923 146.641 437.417 146.31 437.838 145.919C438.396 145.4 438.518 144.385 438.091 143.751Z" fill="#F42F2F"/>
<path d="M296.349 193.525C296.349 237.193 261.184 272.527 217.885 272.527C174.586 272.527 139.421 237.193 139.421 193.525C139.421 149.857 174.586 114.523 217.885 114.523C261.184 114.523 296.349 149.857 296.349 193.525Z" stroke="white" stroke-width="12"/>
<path d="M308.294 215.79V172.153H337.697V179.76H317.519V190.158H336.184V197.764H317.519V208.183H337.782V215.79H308.294ZM368.704 184.703C368.533 182.984 367.802 181.649 366.509 180.697C365.217 179.746 363.462 179.27 361.246 179.27C359.741 179.27 358.469 179.483 357.432 179.909C356.396 180.321 355.6 180.896 355.046 181.635C354.506 182.374 354.236 183.212 354.236 184.149C354.208 184.93 354.371 185.612 354.726 186.195C355.096 186.777 355.6 187.281 356.239 187.707C356.878 188.119 357.617 188.482 358.455 188.794C359.293 189.092 360.188 189.348 361.14 189.561L365.06 190.499C366.964 190.925 368.711 191.493 370.302 192.203C371.893 192.913 373.271 193.787 374.435 194.824C375.6 195.861 376.502 197.082 377.141 198.489C377.795 199.895 378.128 201.507 378.143 203.325C378.128 205.996 377.447 208.311 376.097 210.271C374.762 212.217 372.83 213.73 370.302 214.81C367.788 215.875 364.755 216.408 361.204 216.408C357.681 216.408 354.613 215.868 351.999 214.788C349.4 213.709 347.369 212.111 345.905 209.994C344.457 207.864 343.697 205.229 343.626 202.09H352.553C352.653 203.553 353.072 204.774 353.81 205.754C354.563 206.72 355.565 207.452 356.815 207.949C358.079 208.432 359.506 208.673 361.097 208.673C362.66 208.673 364.016 208.446 365.167 207.991C366.332 207.537 367.234 206.905 367.873 206.095C368.512 205.286 368.832 204.355 368.832 203.304C368.832 202.324 368.54 201.5 367.958 200.832C367.39 200.165 366.552 199.597 365.444 199.128C364.35 198.659 363.008 198.233 361.417 197.849L356.665 196.656C352.986 195.761 350.082 194.362 347.951 192.459C345.82 190.555 344.762 187.991 344.776 184.767C344.762 182.125 345.465 179.817 346.886 177.842C348.32 175.868 350.288 174.327 352.788 173.219C355.288 172.111 358.128 171.557 361.31 171.557C364.549 171.557 367.376 172.111 369.79 173.219C372.219 174.327 374.109 175.868 375.458 177.842C376.807 179.817 377.503 182.104 377.546 184.703H368.704Z" fill="white"/>
<defs>
<filter id="filter0_d_20_125" x="133.421" y="108.523" width="177.928" height="184.004" filterUnits="userSpaceOnUse" color-interpolation-filters="sRGB">
<feFlood flood-opacity="0" result="BackgroundImageFix"/>
<feColorMatrix in="SourceAlpha" type="matrix" values="0 0 0 0 0 0 0 0 0 0 0 0 0 0 0 0 0 0 127 0" result="hardAlpha"/>
<feOffset dx="5" dy="10"/>
<feGaussianBlur stdDeviation="2"/>
<feComposite in2="hardAlpha" operator="out"/>
<feColorMatrix type="matrix" values="0 0 0 0 0 0 0 0 0 0 0 0 0 0 0 0 0 0 0.5 0"/>
<feBlend mode="normal" in2="BackgroundImageFix" result="effect1_dropShadow_20_125"/>
<feBlend mode="normal" in="SourceGraphic" in2="effect1_dropShadow_20_125" result="shape"/>
</filter>
</defs>
</svg>
