<svg width="25" height="25" viewBox="0 0 25 25" fill="none" xmlns="http://www.w3.org/2000/svg">
<path fill-rule="evenodd" clip-rule="evenodd" d="M14.6761 15.7373C13.3283 16.8142 11.6192 17.3342 9.89999 17.1904C8.18076 17.0466 6.58185 16.2499 5.43165 14.964C4.28145 13.6782 3.66727 12.0007 3.71526 10.2761C3.76325 8.55156 4.46975 6.91082 5.68968 5.6909C6.9096 4.47097 8.55034 3.76447 10.2749 3.71648C11.9995 3.6685 13.677 4.28267 14.9628 5.43287C16.2487 6.58307 17.0453 8.18198 17.1892 9.90121C17.333 11.6204 16.813 13.3295 15.7361 14.6773L20.8921 19.8323C20.9658 19.901 21.0249 19.9838 21.0659 20.0758C21.1069 20.1678 21.1289 20.2671 21.1307 20.3678C21.1325 20.4685 21.1139 20.5685 21.0762 20.6619C21.0385 20.7553 20.9824 20.8401 20.9111 20.9114C20.8399 20.9826 20.7551 21.0387 20.6617 21.0764C20.5683 21.1142 20.4683 21.1327 20.3676 21.1309C20.2669 21.1291 20.1676 21.1071 20.0756 21.0661C19.9836 21.0251 19.9008 20.966 19.8321 20.8923L14.6761 15.7373ZM6.7501 14.1753C6.01614 13.4413 5.51626 12.5062 5.31362 11.4881C5.11098 10.47 5.21468 9.41476 5.61162 8.45562C6.00855 7.49649 6.68091 6.67655 7.54372 6.09943C8.40652 5.5223 9.42105 5.21391 10.4591 5.21321C11.4971 5.21251 12.512 5.51954 13.3756 6.0955C14.2392 6.67146 14.9127 7.4905 15.3109 8.4491C15.7091 9.4077 15.8142 10.4628 15.613 11.4812C15.4117 12.4995 14.9131 13.4353 14.1801 14.1703L14.1751 14.1753L14.1701 14.1793C13.1852 15.1619 11.8505 15.7135 10.4593 15.7127C9.06802 15.712 7.73395 15.159 6.7501 14.1753Z" fill="white"/>
</svg>
