<svg width="50" height="50" viewBox="0 0 50 50" fill="none" xmlns="http://www.w3.org/2000/svg">
<rect width="50" height="50" rx="25" fill="#E6E1EF"/>
<path d="M25 13C26.5913 13 28.1174 13.6321 29.2426 14.7574C30.3679 15.8826 31 17.4087 31 19C31 20.5913 30.3679 22.1174 29.2426 23.2426C28.1174 24.3679 26.5913 25 25 25C23.4087 25 21.8826 24.3679 20.7574 23.2426C19.6321 22.1174 19 20.5913 19 19C19 17.4087 19.6321 15.8826 20.7574 14.7574C21.8826 13.6321 23.4087 13 25 13ZM25 28C31.63 28 37 30.685 37 34V37H13V34C13 30.685 18.37 28 25 28Z" fill="#AFAFAF"/>
</svg>
